<svg width="52" height="51" viewBox="0 0 52 51" fill="none" xmlns="http://www.w3.org/2000/svg">
<g clip-path="url(#clip0_244_907)">
<path d="M9.74463 0.982666H42.6821C47.6759 0.982666 51.7134 5.04166 51.7134 10.062V41.8931C51.7134 46.9134 47.6759 50.9724 42.6821 50.9724H9.74463C4.75088 50.9724 0.713379 46.9134 0.713379 41.8931V10.062C0.713379 5.04166 4.75088 0.982666 9.74463 0.982666Z" fill="#470137"/>
<path d="M27.5309 14.1211L21.1559 24.6958L27.9559 35.9115C27.9984 35.9969 28.0197 36.0824 27.9984 36.1678C27.9772 36.2533 27.8922 36.1892 27.7647 36.2106H22.8984C22.5584 36.2106 22.3247 36.1892 22.1759 35.9756C21.7297 35.0783 21.2622 34.2024 20.8159 33.3052C20.3697 32.4293 19.8809 31.532 19.3709 30.6134C18.8609 29.6948 18.3509 28.7762 17.8409 27.8362H17.7984C17.3522 28.7548 16.8634 29.6734 16.3747 30.5921C15.8859 31.5107 15.3972 32.4293 14.9297 33.3265C14.4409 34.2238 13.9522 35.1424 13.4634 36.0183C13.3784 36.2319 13.2084 36.2533 12.9747 36.2533H8.29966C8.21466 36.2533 8.15091 36.296 8.15091 36.1892C8.12966 36.1038 8.15091 36.0183 8.19341 35.9542L14.8022 25.059L8.36341 14.0997C8.29966 14.0143 8.27841 13.9288 8.32091 13.8861C8.36341 13.822 8.44841 13.8006 8.53341 13.8006H13.3572C13.4634 13.8006 13.5697 13.822 13.6547 13.8434C13.7397 13.8861 13.8034 13.9502 13.8672 14.0356C14.2709 14.9542 14.7384 15.8729 15.2272 16.7915C15.7372 17.7101 16.2259 18.6073 16.7572 19.5046C17.2672 20.4018 17.7347 21.2991 18.1809 22.2177H18.2234C18.6697 21.2777 19.1372 20.3591 19.6047 19.4619C20.0722 18.5646 20.5609 17.6674 21.0497 16.7701C21.5384 15.8729 22.0059 14.9542 22.4734 14.0784C22.4947 13.9929 22.5372 13.9074 22.6009 13.8647C22.6859 13.822 22.7709 13.8006 22.8772 13.822H27.3609C27.4672 13.8006 27.5734 13.8647 27.5947 13.9715C27.6159 13.9929 27.5734 14.0784 27.5309 14.1211ZM37.3484 36.6592C35.7759 36.6806 34.2034 36.3601 32.7797 35.6979C31.4409 35.0783 30.3359 34.0529 29.5709 32.7925C28.7847 31.4893 28.4022 29.8657 28.4022 27.9217C28.3809 26.3408 28.7847 24.7813 29.5709 23.414C30.3784 22.0254 31.5472 20.8718 32.9497 20.1028C34.4372 19.2696 36.2222 18.8637 38.3259 18.8637C38.4322 18.8637 38.5809 18.8637 38.7722 18.8851C38.9634 18.9064 39.1759 18.9064 39.4309 18.9278V12.177C39.4309 12.0275 39.4947 11.942 39.6434 11.942H43.9572C44.0634 11.9207 44.1484 12.0061 44.1697 12.0916V32.472C44.1697 32.8566 44.1909 33.2838 44.2122 33.7538C44.2547 34.2024 44.2759 34.6297 44.2972 34.9929C44.2972 35.1424 44.2334 35.2706 44.0847 35.3347C42.9797 35.8047 41.8109 36.1465 40.6209 36.3601C39.5372 36.5524 38.4534 36.6592 37.3484 36.6592ZM39.4309 32.3866V22.9868C39.2397 22.9441 39.0484 22.9013 38.8572 22.88C38.6234 22.8586 38.3897 22.8372 38.1559 22.8372C37.3272 22.8372 36.4984 23.0081 35.7547 23.3927C35.0322 23.7559 34.4159 24.2899 33.9484 24.9736C33.4809 25.6572 33.2472 26.5758 33.2472 27.6867C33.2259 28.4344 33.3534 29.1821 33.6084 29.8871C33.8209 30.4639 34.1397 30.9766 34.5647 31.4039C34.9684 31.7884 35.4572 32.0875 36.0097 32.2584C36.5834 32.4507 37.1784 32.5361 37.7734 32.5361C38.0922 32.5361 38.3897 32.5147 38.6659 32.4934C38.9422 32.5147 39.1759 32.472 39.4309 32.3866Z" fill="#FF61F6"/>
</g>
<defs>
<clipPath id="clip0_244_907">
<rect width="51" height="50" fill="white" transform="translate(0.713379 0.977539)"/>
</clipPath>
</defs>
</svg>
