<svg width="52" height="52" viewBox="0 0 52 52" fill="none" xmlns="http://www.w3.org/2000/svg">
<g clip-path="url(#clip0_244_862)">
<path d="M0.713867 0.919189H51.7139V51.9165H0.713867V0.919189Z" fill="#EB43A3"/>
<path d="M4.59863 5.01343H47.7271V47.8224H4.59863V5.01343Z" fill="#412534"/>
<path opacity="0.302" d="M37.5073 14.3505L35.4632 23.7944L20.3371 15.5048L19.0084 25.2635L16.4533 37.1207L31.2728 47.8238H47.7276V22.0106L37.5073 14.3505ZM4.59863 5.01172H47.7271V6.48055H4.59863V5.01172Z" fill="black"/>
<path d="M20.3902 15.5046V37.1105H16.5498V15.5046H20.3902ZM37.4064 14.3506V32.7189C37.4064 34.3216 37.4687 36.0527 37.5314 37.1107H34.0969L33.941 34.6424H33.8785C32.9732 36.3735 31.1309 37.4634 28.9141 37.4634C25.2922 37.4634 22.4198 34.2899 22.4198 29.4815C22.3885 24.2564 25.5733 21.1469 29.2265 21.1469C31.3184 21.1469 32.8171 22.0445 33.504 23.1985H33.5665V14.3506H37.4064ZM33.5661 28.0067C33.5661 27.6861 33.5347 27.3014 33.4724 26.9809C33.129 25.4422 31.9113 24.192 30.1627 24.192C27.696 24.192 26.3224 26.4359 26.3224 29.3531C26.3224 32.206 27.696 34.2897 30.1316 34.2897C31.6927 34.2897 33.0666 33.1998 33.4412 31.5009C33.5349 31.1484 33.5663 30.7637 33.5663 30.3469L33.5661 28.0067Z" fill="#EB43A3"/>
</g>
<defs>
<clipPath id="clip0_244_862">
<rect width="51" height="51" fill="white" transform="translate(0.713867 0.917725)"/>
</clipPath>
</defs>
</svg>
