<svg width="52" height="52" viewBox="0 0 52 52" fill="none" xmlns="http://www.w3.org/2000/svg">
<g clip-path="url(#clip0_244_891)">
<path d="M9.74463 0.482666H42.6821C47.6759 0.482666 51.7134 4.62284 51.7134 9.74359V42.2113C51.7134 47.332 47.6759 51.4722 42.6821 51.4722H9.74463C4.75088 51.4722 0.713379 47.332 0.713379 42.2113V9.74359C0.713379 4.62284 4.75088 0.482666 9.74463 0.482666Z" fill="#001E36"/>
<path d="M12.1885 36.2408V13.8184C12.1885 13.6659 12.2522 13.5787 12.401 13.5787C12.7622 13.5787 13.1022 13.5787 13.591 13.557C14.101 13.5352 14.6322 13.5352 15.206 13.5134C15.7797 13.4916 16.396 13.4916 17.0547 13.4698C17.7135 13.448 18.351 13.448 18.9885 13.448C20.731 13.448 22.176 13.6659 23.366 14.1235C24.4285 14.4939 25.406 15.1041 26.2135 15.9103C26.8935 16.6076 27.4247 17.4574 27.7647 18.3944C28.0835 19.3096 28.2535 20.2466 28.2535 21.2272C28.2535 23.1011 27.8285 24.6483 26.9785 25.8685C26.1285 27.0888 24.9385 28.004 23.5572 28.527C22.1122 29.0717 20.5185 29.2678 18.776 29.2678C18.266 29.2678 17.926 29.2678 17.7135 29.246C17.501 29.2242 17.2035 29.2242 16.7997 29.2242V36.219C16.821 36.3715 16.7147 36.5022 16.566 36.524H12.4435C12.2735 36.524 12.1885 36.4369 12.1885 36.2408ZM16.821 17.7843V25.1059C17.1185 25.1277 17.3947 25.1494 17.6497 25.1494H18.776C19.6047 25.1494 20.4335 25.0187 21.2197 24.7572C21.8997 24.5611 22.4947 24.1471 22.9622 23.6023C23.4085 23.0576 23.621 22.3167 23.621 21.3579C23.6422 20.6824 23.4722 20.0069 23.1322 19.4186C22.771 18.852 22.261 18.4162 21.6447 18.1765C20.8585 17.8497 20.0085 17.7189 19.1372 17.7407C18.5847 17.7407 18.096 17.7407 17.6922 17.7625C17.2672 17.7407 16.9697 17.7625 16.821 17.7843ZM41.5135 23.7766C40.876 23.428 40.196 23.1883 39.4735 23.0358C38.6872 22.8615 37.901 22.7525 37.0935 22.7525C36.6685 22.7307 36.2222 22.7961 35.8185 22.905C35.5422 22.9704 35.3085 23.1229 35.1597 23.3408C35.0535 23.5152 34.9897 23.7331 34.9897 23.9292C34.9897 24.1253 35.0747 24.3214 35.2022 24.4957C35.3935 24.7354 35.6485 24.9315 35.9247 25.0841C36.4135 25.3456 36.9235 25.5853 37.4335 25.8032C38.581 26.1954 39.686 26.7401 40.706 27.3939C41.4072 27.8515 41.981 28.4616 42.3847 29.2025C42.7247 29.8998 42.8947 30.6624 42.8735 31.4469C42.8947 32.471 42.5972 33.4952 42.0447 34.345C41.4497 35.2166 40.621 35.8921 39.6647 36.2843C38.6235 36.7419 37.3485 36.9816 35.8185 36.9816C34.841 36.9816 33.8847 36.8945 32.9285 36.6984C32.1847 36.5676 31.441 36.3279 30.761 36.0011C30.6122 35.9139 30.506 35.7614 30.5272 35.587V31.7955C30.5272 31.7301 30.5485 31.643 30.6122 31.5994C30.676 31.5558 30.7397 31.5776 30.8035 31.6212C31.6322 32.1224 32.5035 32.471 33.4385 32.6889C34.246 32.9068 35.096 33.0158 35.946 33.0158C36.7535 33.0158 37.3272 32.9068 37.7097 32.7107C38.0497 32.5582 38.2835 32.1877 38.2835 31.7955C38.2835 31.4904 38.1135 31.2072 37.7735 30.9239C37.4335 30.6406 36.7322 30.3138 35.691 29.8998C34.6072 29.5075 33.6085 28.9846 32.6735 28.3308C32.0147 27.8515 31.4622 27.2195 31.0585 26.4787C30.7185 25.7814 30.5485 25.0187 30.5697 24.256C30.5697 23.319 30.8247 22.4256 31.2922 21.6194C31.8235 20.7478 32.6097 20.0505 33.5235 19.6147C34.5222 19.0917 35.776 18.852 37.2847 18.852C38.156 18.852 39.0485 18.9174 39.9197 19.0481C40.5572 19.1353 41.1735 19.3096 41.7472 19.5493C41.8322 19.5711 41.9172 19.6583 41.9597 19.7454C41.981 19.8326 42.0022 19.9197 42.0022 20.0069V23.5587C42.0022 23.6459 41.9597 23.7331 41.896 23.7766C41.7047 23.8202 41.5985 23.8202 41.5135 23.7766Z" fill="#31A8FF"/>
</g>
<defs>
<clipPath id="clip0_244_891">
<rect width="51" height="51" fill="white" transform="translate(0.713379 0.477539)"/>
</clipPath>
</defs>
</svg>
