<svg width="23" height="18" viewBox="0 0 23 18" fill="none" xmlns="http://www.w3.org/2000/svg">
<path d="M1.42233 9.86355L18.6295 9.86355L13.6769 15.2124C13.2811 15.6399 13.2811 16.3413 13.6769 16.7688C13.7708 16.8704 13.8823 16.951 14.0051 17.006C14.1278 17.061 14.2595 17.0894 14.3924 17.0894C14.5253 17.0894 14.6569 17.061 14.7797 17.006C14.9025 16.951 15.014 16.8704 15.1079 16.7688L21.796 9.54569C21.8901 9.44429 21.9647 9.32384 22.0156 9.19125C22.0666 9.05865 22.0928 8.91651 22.0928 8.77296C22.0928 8.62941 22.0666 8.48727 22.0156 8.35467C21.9647 8.22208 21.8901 8.10163 21.796 8.00023L15.1079 0.777105C15.0139 0.675628 14.9024 0.595135 14.7796 0.540216C14.6568 0.485297 14.5253 0.457031 14.3924 0.457031C14.2595 0.457031 14.1279 0.485297 14.0052 0.540216C13.8824 0.595135 13.7708 0.675628 13.6769 0.777105C13.5829 0.878581 13.5084 0.999053 13.4575 1.13164C13.4067 1.26422 13.3805 1.40633 13.3805 1.54984C13.3805 1.69335 13.4067 1.83545 13.4575 1.96804C13.5084 2.10062 13.5829 2.22109 13.6769 2.32257L18.6295 7.67141L1.42233 7.67141C0.86414 7.67141 0.40744 8.16464 0.40744 8.76748C0.40744 9.37032 0.864139 9.86355 1.42233 9.86355Z" fill="#FCFCFC"/>
</svg>
