<svg width="15" height="12" viewBox="0 0 15 12" fill="none" xmlns="http://www.w3.org/2000/svg">
<path d="M0.786737 6.48533L11.954 6.48533L8.73983 9.95667C8.48295 10.2341 8.48295 10.6894 8.73983 10.9668C8.80076 11.0327 8.87314 11.085 8.95282 11.1207C9.0325 11.1564 9.11791 11.1748 9.20418 11.1748C9.29044 11.1748 9.37585 11.1564 9.45553 11.1207C9.53521 11.085 9.60759 11.0327 9.66852 10.9668L14.009 6.27904C14.0701 6.21323 14.1185 6.13506 14.1516 6.04901C14.1846 5.96296 14.2017 5.87071 14.2017 5.77754C14.2017 5.68438 14.1846 5.59213 14.1516 5.50608C14.1185 5.42002 14.0701 5.34186 14.009 5.27605L9.66853 0.588308C9.60755 0.522451 9.53515 0.470212 9.45548 0.43457C9.37581 0.398928 9.29041 0.380583 9.20418 0.380583C9.11794 0.380583 9.03255 0.398928 8.95287 0.43457C8.8732 0.470212 8.80081 0.522451 8.73983 0.588308C8.67885 0.654166 8.63048 0.732351 8.59747 0.818398C8.56447 0.904444 8.54749 0.996669 8.54749 1.08981C8.54749 1.18294 8.56447 1.27516 8.59747 1.36121C8.63048 1.44726 8.67885 1.52544 8.73983 1.5913L11.954 5.06265L0.786737 5.06265C0.424479 5.06265 0.128085 5.38275 0.128085 5.77399C0.128085 6.16522 0.424478 6.48533 0.786737 6.48533Z" fill="#002642"/>
</svg>
