<svg width="53" height="53" viewBox="0 0 53 53" fill="none" xmlns="http://www.w3.org/2000/svg">
<g clip-path="url(#clip0_244_882)">
<path d="M0.713379 45.3634C0.713379 49.0668 3.71536 52.0684 7.41833 52.0684H46.0082C49.7118 52.0684 52.7134 49.0664 52.7134 45.3634V6.77352C52.7134 3.06994 49.7114 0.0683594 46.0084 0.0683594H7.41853C3.71496 0.0683594 0.713379 3.07034 0.713379 6.77331V45.3634Z" fill="#563D7C"/>
<path d="M22.2766 23.0698V15.7059H28.7585C29.376 15.7059 29.9712 15.7573 30.5444 15.8603C31.1176 15.9631 31.6248 16.1467 32.0658 16.4114C32.5066 16.6761 32.8594 17.0435 33.1241 17.5138C33.3886 17.9842 33.521 18.5869 33.521 19.3216C33.521 20.6445 33.1241 21.6 32.3303 22.1879C31.5367 22.7759 30.5225 23.0698 29.2877 23.0698H22.2766ZM15.3535 10.3262V41.8105H30.6106C32.0217 41.8105 33.3961 41.6342 34.7337 41.2814C36.0713 40.9286 37.2618 40.3848 38.3054 39.6499C39.3489 38.915 40.1795 37.9668 40.7968 36.8057C41.4143 35.6445 41.7228 34.2701 41.7228 32.6827C41.7228 30.713 41.245 29.0301 40.2898 27.6338C39.3343 26.2374 37.8864 25.2599 35.9461 24.7013C37.3572 24.0253 38.423 23.158 39.1433 22.0997C39.8634 21.0414 40.2235 19.7187 40.2235 18.131C40.2235 16.6612 39.981 15.4266 39.4959 14.4271C39.0109 13.4277 38.3274 12.6266 37.4454 12.0239C36.5636 11.4212 35.5053 10.9875 34.2705 10.7231C33.036 10.4584 31.6689 10.3262 30.1697 10.3262H15.3535ZM22.2766 36.4308V27.788H29.8168C31.3161 27.788 32.5214 28.1333 33.4329 28.8244C34.3441 29.5152 34.7999 30.6689 34.7999 32.2858C34.7999 33.1091 34.6601 33.7851 34.3808 34.3142C34.1015 34.8434 33.7268 35.2624 33.2563 35.571C32.7861 35.8797 32.2421 36.1001 31.6248 36.2325C31.0073 36.3646 30.3608 36.4308 29.6846 36.4308H22.2766Z" fill="white"/>
</g>
<defs>
<clipPath id="clip0_244_882">
<rect width="52" height="52" fill="white" transform="translate(0.713379 0.0683594)"/>
</clipPath>
</defs>
</svg>
