<svg width="19" height="11" viewBox="0 0 19 11" fill="none" xmlns="http://www.w3.org/2000/svg">
<path fill-rule="evenodd" clip-rule="evenodd" d="M1.23127 0.60628C1.53889 0.299045 1.95588 0.126474 2.39065 0.126474C2.82541 0.126474 3.2424 0.299045 3.55002 0.60628L9.50002 6.55628L15.45 0.60628C15.6002 0.44509 15.7813 0.315804 15.9826 0.226134C16.1838 0.136464 16.4011 0.0882485 16.6214 0.0843618C16.8417 0.0804751 17.0605 0.120997 17.2648 0.203512C17.4691 0.286027 17.6546 0.408843 17.8104 0.564634C17.9662 0.720425 18.089 0.905999 18.1715 1.11029C18.2541 1.31457 18.2946 1.53339 18.2907 1.75367C18.2868 1.97396 18.2386 2.19121 18.1489 2.39246C18.0592 2.59371 17.93 2.77483 17.7688 2.92503L10.6594 10.0344C10.3518 10.3416 9.93479 10.5142 9.50002 10.5142C9.06525 10.5142 8.64826 10.3416 8.34065 10.0344L1.23127 2.92503C0.924035 2.61741 0.751465 2.20042 0.751465 1.76566C0.751465 1.33089 0.924035 0.913898 1.23127 0.60628Z" fill="#002642"/>
</svg>
