<svg width="19" height="11" viewBox="0 0 19 11" fill="none" xmlns="http://www.w3.org/2000/svg">
<path fill-rule="evenodd" clip-rule="evenodd" d="M17.8112 9.99199C17.5036 10.2992 17.0866 10.4718 16.6518 10.4718C16.2171 10.4718 15.8001 10.2992 15.4925 9.99199L9.54246 4.04199L3.59246 9.99199C3.44226 10.1532 3.26113 10.2825 3.05989 10.3721C2.85864 10.4618 2.64139 10.51 2.4211 10.5139C2.20081 10.5178 1.982 10.4773 1.77771 10.3948C1.57343 10.3122 1.38785 10.1894 1.23206 10.0336C1.07627 9.87784 0.953455 9.69227 0.870941 9.48798C0.788426 9.2837 0.747903 9.06488 0.751789 8.84459C0.755676 8.62431 0.803893 8.40706 0.893563 8.20581C0.983233 8.00456 1.11252 7.82344 1.27371 7.67324L8.38308 0.563862C8.6907 0.256627 9.10769 0.0840553 9.54246 0.0840553C9.97723 0.0840553 10.3942 0.256627 10.7018 0.563862L17.8112 7.67324C18.1184 7.98085 18.291 8.39784 18.291 8.83261C18.291 9.26738 18.1184 9.68437 17.8112 9.99199Z" fill="#002642"/>
</svg>
