<svg width="44" height="35" viewBox="0 0 44 35" fill="none" xmlns="http://www.w3.org/2000/svg">
<path d="M19.0657 34.9658L14.8958 33.7559C14.4583 33.6328 14.2122 33.1748 14.3352 32.7373L23.6663 0.594749C23.7893 0.157249 24.2473 -0.0888449 24.6848 0.034202L28.8547 1.24416C29.2922 1.36721 29.5383 1.82522 29.4153 2.26272L20.0842 34.4053C19.9543 34.8428 19.5032 35.0957 19.0657 34.9658ZM11.2727 27.2959L14.2463 24.124C14.5608 23.7891 14.5403 23.2559 14.1917 22.9483L7.99829 17.5L14.1917 12.0518C14.5403 11.7442 14.5676 11.211 14.2463 10.876L11.2727 7.70412C10.9651 7.376 10.4456 7.35549 10.1106 7.66994L0.26001 16.8985C-0.0886231 17.2197 -0.0886231 17.7735 0.26001 18.0947L10.1106 27.3301C10.4456 27.6446 10.9651 27.6309 11.2727 27.2959ZM33.6399 27.3369L43.4905 18.1016C43.8391 17.7803 43.8391 17.2266 43.4905 16.9053L33.6399 7.66311C33.3118 7.35549 32.7922 7.36916 32.4778 7.69729L29.5042 10.8692C29.1897 11.2041 29.2102 11.7373 29.5588 12.0449L35.7522 17.5L29.5588 22.9483C29.2102 23.2559 29.1829 23.7891 29.5042 24.124L32.4778 27.2959C32.7854 27.6309 33.3049 27.6446 33.6399 27.3369Z" fill="#002642"/>
</svg>
