<svg width="46" height="53" viewBox="0 0 46 53" fill="none" xmlns="http://www.w3.org/2000/svg">
<g clip-path="url(#clip0_244_872)">
<path d="M4.4814 46.6209L0.713379 0.155518L45.7134 0.248894L41.7291 46.6209L23.3832 51.9811L4.4814 46.6209Z" fill="#1B73BA"/>
<path d="M23.3833 47.4935V4.58081L41.9146 4.64306L38.61 43.0371L23.3833 47.4935Z" fill="#1C88C7"/>
<path d="M37.3126 10.0659H8.80542L9.57768 15.6751H23.1053L9.79397 21.4406L10.5659 26.863H30.1782L29.4677 34.4356L22.8273 35.7447L16.8049 34.1866L16.3415 29.8858H10.813L11.554 38.8301L23.4141 42.1646L34.7802 38.5185L36.2318 21.0352H24.2168L37.3122 15.5506L37.3126 10.0659Z" fill="white"/>
</g>
<defs>
<clipPath id="clip0_244_872">
<rect width="45" height="52" fill="white" transform="translate(0.713379 0.0683594)"/>
</clipPath>
</defs>
</svg>
