<svg width="52" height="52" viewBox="0 0 52 52" fill="none" xmlns="http://www.w3.org/2000/svg">
<g clip-path="url(#clip0_244_920)">
<path d="M26.312 0.0646973C40.339 0.0646973 51.7134 11.7551 51.7134 26.1763C51.7134 37.7133 44.4351 47.501 34.3423 50.9537C33.0729 51.1954 32.6067 50.3873 32.6067 49.6976C32.6067 49.075 32.6304 47.0179 32.6412 44.8361C39.7081 46.4156 41.1992 41.7552 41.1992 41.7552C42.3547 38.7371 44.0196 37.9347 44.0196 37.9347C46.3241 36.314 43.8458 36.3472 43.8458 36.3472C41.295 36.5315 39.9519 39.0381 39.9519 39.0381C37.6864 43.03 34.0096 41.8759 32.5601 41.2089C32.3322 39.521 31.6738 38.3693 30.9474 37.7172C36.5893 37.0568 42.5204 34.8178 42.5204 24.8126C42.5204 21.962 41.5281 19.6325 39.9031 17.8039C40.1669 17.1461 41.0362 14.4904 39.6571 10.8937C39.6571 10.8937 37.524 10.1919 32.6699 13.5703C30.6438 12.9916 28.4707 12.7016 26.312 12.6918C24.1533 12.7016 21.9786 12.9916 19.9485 13.5703C15.1002 10.1919 12.9701 10.8937 12.9701 10.8937C11.5875 14.4904 12.4573 17.1461 12.7211 17.8039C11.0925 19.6325 10.1069 21.9618 10.1069 24.8126C10.1069 34.8416 16.0492 37.05 21.7055 37.6963C20.7944 38.5067 19.9826 40.0958 19.9826 42.5318C19.9826 46.0255 20.0121 48.8375 20.0121 49.6976C20.0121 50.3924 19.5549 51.2067 18.2671 50.9503C8.1799 47.4936 0.910804 37.7094 0.910804 26.1763C0.910804 11.7551 12.2836 0.0646973 26.312 0.0646973Z" fill="#161614"/>
<path d="M42.1998 37.2614C42.2556 37.391 42.4544 37.4299 42.6351 37.341C42.8194 37.2559 42.9229 37.0789 42.8632 36.9487C42.8084 36.8152 42.6096 36.7779 42.4257 36.8676C42.241 36.9526 42.1358 37.1311 42.1998 37.2614ZM40.9503 38.4074C41.0714 38.5229 41.3083 38.4692 41.469 38.2868C41.6352 38.1047 41.6663 37.8614 41.5434 37.7441C41.4184 37.6288 41.1887 37.6826 41.0222 37.8649C40.8561 38.049 40.8238 38.2909 40.9505 38.4076M40.093 39.8737C40.2488 39.9849 40.5034 39.8806 40.6606 39.6484C40.8162 39.4164 40.8162 39.1379 40.6572 39.0263C40.4995 38.9146 40.2488 39.015 40.0895 39.2454C39.9341 39.4815 39.9341 39.76 40.0932 39.8739M38.6435 41.572C38.7828 41.7297 39.0792 41.6875 39.2964 41.4721C39.5183 41.2615 39.5803 40.9627 39.4406 40.8049C39.2998 40.6468 39.0015 40.6912 38.7828 40.9048C38.5622 41.1149 38.4951 41.4159 38.6435 41.572ZM36.7701 42.1454C36.8312 42.3498 37.1169 42.4428 37.4046 42.3559C37.6919 42.2664 37.8799 42.0268 37.822 41.8202C37.7622 41.6144 37.4753 41.5175 37.1854 41.6105C36.8986 41.6996 36.7103 41.9373 36.7701 42.1454ZM34.6376 42.3885C34.6305 42.6039 34.8745 42.7825 35.1765 42.7864C35.4803 42.7931 35.726 42.6189 35.7292 42.4071C35.7292 42.1896 35.4907 42.0127 35.1871 42.0076C34.8851 42.0014 34.6376 42.1745 34.6376 42.3885ZM32.5431 42.306C32.5068 42.5161 32.7168 42.7319 33.0166 42.7893C33.3114 42.8446 33.5844 42.7149 33.622 42.5066C33.6587 42.2912 33.4447 42.0756 33.1505 42.0197C32.85 41.966 32.5813 42.0924 32.5431 42.306Z" fill="#161614"/>
</g>
<defs>
<clipPath id="clip0_244_920">
<rect width="51" height="51" fill="white" transform="matrix(-1 0 0 1 51.7134 0.0646973)"/>
</clipPath>
</defs>
</svg>
