<svg width="28" height="41" viewBox="0 0 28 41" fill="none" xmlns="http://www.w3.org/2000/svg">
<path d="M14.4185 20.2222C14.4185 16.5296 17.4331 13.5208 21.1671 13.5208C24.8857 13.5208 27.9156 16.5144 27.9156 20.2222C27.9156 23.9149 24.901 26.9237 21.1671 26.9237C17.4484 26.9237 14.4185 23.9149 14.4185 20.2222Z" fill="#1ABCFE"/>
<path d="M0.921387 33.6102C0.921387 29.9175 3.93606 26.9087 7.66998 26.9087H14.4186V33.6102C14.4186 37.3028 11.4039 40.3117 7.66998 40.3117C3.93606 40.3117 0.921387 37.318 0.921387 33.6102Z" fill="#0ACF83"/>
<path d="M14.4185 0.133116V13.5209H21.1671C24.8857 13.5209 27.9156 10.5273 27.9156 6.8194C27.9156 3.12675 24.901 0.11792 21.1671 0.11792H14.4185V0.133116Z" fill="#FF7262"/>
<path d="M0.921387 6.83454C0.921387 10.5272 3.93606 13.536 7.66998 13.536H14.4186V0.133057H7.66998C3.93606 0.133057 0.921387 3.12669 0.921387 6.83454Z" fill="#F24E1E"/>
<path d="M0.921387 20.2222C0.921387 23.9149 3.93606 26.9237 7.66998 26.9237H14.4186V13.5208H7.66998C3.93606 13.5208 0.921387 16.5296 0.921387 20.2222Z" fill="#A259FF"/>
</svg>
