<svg width="44" height="27" viewBox="0 0 44 27" fill="none" xmlns="http://www.w3.org/2000/svg">
<path d="M22.1074 1.82422L15.4902 7.18359C14.3896 8.07227 14.1777 9.67187 15.0117 10.8135C15.8936 12.0303 17.6094 12.2695 18.792 11.3467L25.5801 6.06934C26.0586 5.7002 26.7422 5.78223 27.1182 6.26074C27.4941 6.73926 27.4053 7.42285 26.9268 7.79883L25.498 8.90625L37.6113 20.0625H40.4688C42.2803 20.0625 43.75 18.5928 43.75 16.7812V8.03125C43.75 6.21973 42.2803 4.75 40.4688 4.75H34.9521L34.6855 4.5791L29.7227 1.40039C28.6768 0.730469 27.4531 0.375 26.209 0.375C24.7187 0.375 23.2695 0.887695 22.1074 1.82422ZM23.666 10.3281L20.1318 13.0762C17.9785 14.7578 14.8545 14.3203 13.2412 12.1055C11.7236 10.0205 12.1064 7.1084 14.1094 5.48828L19.7969 0.887695C19.0039 0.552734 18.1494 0.381836 17.2813 0.381836C15.9961 0.375 14.7451 0.757813 13.6719 1.46875L8.75 4.75H3.28125C1.46973 4.75 0 6.21973 0 8.03125V16.7812C0 18.5928 1.46973 20.0625 3.28125 20.0625H10.6777L16.9258 25.7637C18.2656 26.9873 20.3369 26.8916 21.5605 25.5518C21.9365 25.1348 22.1895 24.6494 22.3193 24.1436L23.4814 25.21C24.8145 26.4336 26.8926 26.3447 28.1162 25.0117C28.4238 24.6768 28.6494 24.2871 28.793 23.8838C30.1191 24.7725 31.9238 24.5879 33.0381 23.3711C34.2617 22.0381 34.1729 19.96 32.8398 18.7363L23.666 10.3281Z" fill="#002642"/>
</svg>
