<svg width="38" height="42" viewBox="0 0 38 42" fill="none" xmlns="http://www.w3.org/2000/svg">
<path d="M31.5771 35.4743H6.10856L0.231201 41.5994V6.89089C0.231201 3.52213 2.87601 0.765869 6.10856 0.765869H31.5771C34.8097 0.765869 37.4545 3.52213 37.4545 6.89089V29.3493C37.4545 32.7181 34.8097 35.4743 31.5771 35.4743Z" fill="#002642"/>
<path d="M16.8833 15.0577H20.8015V26.287H16.8833V15.0577Z" fill="white"/>
<path d="M18.8424 11.9952C19.9244 11.9952 20.8015 11.0811 20.8015 9.95354C20.8015 8.82595 19.9244 7.91187 18.8424 7.91187C17.7604 7.91187 16.8833 8.82595 16.8833 9.95354C16.8833 11.0811 17.7604 11.9952 18.8424 11.9952Z" fill="white"/>
</svg>
