<svg width="44" height="36" viewBox="0 0 44 36" fill="none" xmlns="http://www.w3.org/2000/svg">
<g clip-path="url(#clip0_244_945)">
<path d="M18.6074 5.17908L15.1143 8.67224C14.0684 8.95935 13.0977 9.48572 12.2773 10.2103L10.459 11.8304C9.76172 12.4525 8.85254 12.7943 7.91602 12.7943H6.5625V21.5443C7.95703 21.5853 9.2832 22.1527 10.2744 23.1439L12.708 25.5775L13.1865 26.056L15.0322 27.9017C15.4561 28.3256 16.1533 28.3256 16.5771 27.9017C16.6934 27.7855 16.7822 27.6488 16.8301 27.5052C17.0215 26.9789 17.4658 26.5824 18.0127 26.4594C18.5596 26.3363 19.1338 26.5004 19.5303 26.9037L20.2686 27.6283C21.0615 28.4213 22.3467 28.4213 23.1328 27.6283C23.502 27.2592 23.7002 26.7875 23.7207 26.3021C23.748 25.7006 24.1035 25.1674 24.6504 24.9076C25.1973 24.6478 25.833 24.7025 26.3184 25.0511C26.9609 25.5092 27.8564 25.4476 28.4307 24.8734C29.0732 24.2308 29.0732 23.1918 28.4307 22.556L23.249 17.3744L20.8018 19.6302C18.9355 21.3529 16.0713 21.3802 14.1709 19.6918C12.0039 17.764 11.9561 14.4008 14.0615 12.4115L18.8535 7.88611C20.7266 6.12244 23.2012 5.13806 25.7783 5.13806C28.2461 5.13806 30.6318 6.04724 32.4707 7.68103L34.5283 9.51306H42.6562C43.2578 9.51306 43.75 10.0052 43.75 10.6068V24.8256C43.75 26.0355 42.7725 27.0131 41.5625 27.0131H39.375C38.5684 27.0131 37.8574 26.5756 37.4814 25.9193H31.6777C31.4453 26.3773 31.1377 26.8148 30.7549 27.1976C29.5859 28.3666 27.9658 28.8246 26.4482 28.5717C26.2021 29.0707 25.8672 29.5355 25.4502 29.9525C23.584 31.8187 20.665 32.0033 18.5869 30.5062C16.8711 31.9281 14.3145 31.8392 12.708 30.226L10.8691 28.3802L10.3906 27.9017L7.95703 25.4681C7.58105 25.0922 7.08887 24.8734 6.5625 24.8324C6.5625 26.0355 5.57813 27.0131 4.375 27.0131H2.1875C0.977539 27.0131 0 26.0355 0 24.8256V10.6068C0 10.0052 0.492187 9.51306 1.09375 9.51306H7.91602C8.05273 9.51306 8.18262 9.46521 8.27832 9.37634L10.0898 7.76306C11.9971 6.07459 14.4512 5.13806 17.001 5.13806H17.7051C18.0059 5.13806 18.3135 5.15173 18.6074 5.17908ZM37.1875 22.6381V12.7943H33.9062C33.5029 12.7943 33.1133 12.6439 32.8193 12.3773L30.2969 10.1351C29.0527 9.02771 27.4463 8.41931 25.7783 8.41931C24.042 8.41931 22.374 9.0824 21.1094 10.2719L16.3174 14.7972C15.6133 15.4672 15.627 16.5951 16.3516 17.2377C16.9873 17.8051 17.9512 17.7914 18.5732 17.2172L23.4883 12.6781C24.1514 12.0629 25.1904 12.1039 25.8057 12.7738C26.4209 13.4437 26.3799 14.476 25.71 15.0912L25.6553 15.1459L30.7412 20.2318C31.4248 20.9154 31.8691 21.7562 32.0674 22.6312H37.1875V22.6381ZM4.375 23.7318C4.375 23.4417 4.25977 23.1635 4.05465 22.9584C3.84953 22.7533 3.57133 22.6381 3.28125 22.6381C2.99117 22.6381 2.71297 22.7533 2.50785 22.9584C2.30273 23.1635 2.1875 23.4417 2.1875 23.7318C2.1875 24.0219 2.30273 24.3001 2.50785 24.5052C2.71297 24.7103 2.99117 24.8256 3.28125 24.8256C3.57133 24.8256 3.84953 24.7103 4.05465 24.5052C4.25977 24.3001 4.375 24.0219 4.375 23.7318ZM40.4688 24.8256C40.7588 24.8256 41.037 24.7103 41.2421 24.5052C41.4473 24.3001 41.5625 24.0219 41.5625 23.7318C41.5625 23.4417 41.4473 23.1635 41.2421 22.9584C41.037 22.7533 40.7588 22.6381 40.4688 22.6381C40.1787 22.6381 39.9005 22.7533 39.6954 22.9584C39.4902 23.1635 39.375 23.4417 39.375 23.7318C39.375 24.0219 39.4902 24.3001 39.6954 24.5052C39.9005 24.7103 40.1787 24.8256 40.4688 24.8256Z" fill="#002642"/>
</g>
<defs>
<clipPath id="clip0_244_945">
<rect width="43.75" height="35" fill="white" transform="translate(0 0.763062)"/>
</clipPath>
</defs>
</svg>
