<svg width="24" height="24" viewBox="0 0 20 20" fill="none" xmlns="http://www.w3.org/2000/svg">
<g opacity="0.5">
<g clip-path="url(#clip0_244_1022)">
<path fill-rule="evenodd" clip-rule="evenodd" d="M0 10C0 7.34784 1.05357 4.8043 2.92893 2.92893C4.8043 1.05357 7.34784 0 10 0C12.6522 0 15.1957 1.05357 17.0711 2.92893C18.9464 4.8043 20 7.34784 20 10C20 12.6522 18.9464 15.1957 17.0711 17.0711C15.1957 18.9464 12.6522 20 10 20C7.34784 20 4.8043 18.9464 2.92893 17.0711C1.05357 15.1957 0 12.6522 0 10ZM10 9.97286C10.0004 9.04106 10.3708 8.14755 11.0298 7.48881C11.6888 6.83006 12.5825 6.46 13.5143 6.46C13.8714 6.46 14.1443 6.03143 13.8829 5.78857C13.0684 5.03329 12.0513 4.53202 10.9563 4.34618C9.86117 4.16034 8.73565 4.29802 7.71765 4.74233C6.69964 5.18664 5.83337 5.91829 5.225 6.84761C4.61663 7.77693 4.29259 8.86354 4.29259 9.97429C4.29259 11.085 4.61663 12.1716 5.225 13.101C5.83337 14.0303 6.69964 14.7619 7.71765 15.2062C8.73565 15.6506 9.86117 15.7882 10.9563 15.6024C12.0513 15.4166 13.0684 14.9153 13.8829 14.16C14.1443 13.9171 13.8714 13.4871 13.5143 13.4871C13.0527 13.4871 12.5956 13.3962 12.1691 13.2195C11.7426 13.0428 11.3552 12.7838 11.0288 12.4573C10.7025 12.1308 10.4436 11.7433 10.2671 11.3167C10.0906 10.8902 9.99981 10.4345 10 9.97286Z" fill="white"/>
</g>
</g>
<defs>
<clipPath id="clip0_244_1022">
<rect width="20" height="20" fill="white"/>
</clipPath>
</defs>
</svg>
