<svg width="36" height="35" viewBox="0 0 36 35" fill="none" xmlns="http://www.w3.org/2000/svg">
<path d="M4.0787 11.5784C4.48892 11.1683 5.04522 10.938 5.62527 10.938C6.20531 10.938 6.76161 11.1683 7.17183 11.5784L18 22.4066L28.8281 11.5784C29.2406 11.18 29.7932 10.9595 30.3668 10.9645C30.9403 10.9694 31.489 11.1995 31.8946 11.6051C32.3001 12.0107 32.5302 12.5593 32.5352 13.1329C32.5402 13.7064 32.3197 14.259 31.9212 14.6716L19.5465 27.0462C19.1363 27.4563 18.58 27.6867 18 27.6867C17.4199 27.6867 16.8636 27.4563 16.4534 27.0462L4.0787 14.6716C3.66861 14.2613 3.43823 13.705 3.43823 13.125C3.43823 12.5449 3.66861 11.9886 4.0787 11.5784Z" fill="#FCFCFC"/>
</svg>
