<svg width="50" height="56" viewBox="0 0 50 56" fill="none" xmlns="http://www.w3.org/2000/svg">
<g clip-path="url(#clip0_244_895)">
<path d="M4.81634 49.807L0.713379 0.660156L49.7134 0.758919L45.3749 49.807L25.3983 55.4764L4.81634 49.807Z" fill="#E9CA32"/>
<path d="M25.3984 50.73V5.34082L45.577 5.40666L41.9786 46.0161L25.3984 50.73Z" fill="#FFDE25"/>
<path d="M23.2374 10.7302H17.9027V40.9401L13.7535 40.1655V36.0988L8.81396 35.3242V44.4259L23.2374 48.1053V10.7302ZM27.2392 10.7302H42.0075L41.0196 16.5205H32.8769V26.0222H41.0196L40.0317 45.2005L27.2392 48.1053V42.102L35.8825 39.1973L36.3816 31.2575L27.2392 32.5549V10.7302Z" fill="white"/>
</g>
<defs>
<clipPath id="clip0_244_895">
<rect width="49" height="55" fill="white" transform="translate(0.713379 0.568359)"/>
</clipPath>
</defs>
</svg>
