<svg width="36" height="35" viewBox="0 0 36 35" fill="none" xmlns="http://www.w3.org/2000/svg">
<path fill-rule="evenodd" clip-rule="evenodd" d="M18.2498 1.82294C9.59171 1.82294 2.57275 8.8419 2.57275 17.5C2.57275 20.2067 3.25963 22.7573 4.46859 24.9813L3.32088 31.1544C3.28858 31.3288 3.29921 31.5085 3.35183 31.6779C3.40446 31.8474 3.49751 32.0015 3.62295 32.1269C3.7484 32.2524 3.90248 32.3454 4.07191 32.398C4.24133 32.4507 4.42102 32.4613 4.59546 32.429L10.7686 31.2798C13.0641 32.5287 15.6366 33.1811 18.2498 33.1771C26.908 33.1771 33.9269 26.1581 33.9269 17.5C33.9269 8.8419 26.908 1.82294 18.2498 1.82294ZM25.5415 15.6771C25.058 15.6771 24.5944 15.8692 24.2525 16.211C23.9106 16.5529 23.7186 17.0166 23.7186 17.5C23.7186 17.9835 23.9106 18.4472 24.2525 18.789C24.5944 19.1309 25.058 19.3229 25.5415 19.3229C26.025 19.3229 26.4886 19.1309 26.8305 18.789C27.1724 18.4472 27.3644 17.9835 27.3644 17.5C27.3644 17.0166 27.1724 16.5529 26.8305 16.211C26.4886 15.8692 26.025 15.6771 25.5415 15.6771ZM16.4269 17.5C16.4269 17.0166 16.619 16.5529 16.9608 16.211C17.3027 15.8692 17.7664 15.6771 18.2498 15.6771C18.7333 15.6771 19.197 15.8692 19.5388 16.211C19.8807 16.5529 20.0728 17.0166 20.0728 17.5C20.0728 17.9835 19.8807 18.4472 19.5388 18.789C19.197 19.1309 18.7333 19.3229 18.2498 19.3229C17.7664 19.3229 17.3027 19.1309 16.9608 18.789C16.619 18.4472 16.4269 17.9835 16.4269 17.5ZM10.9582 15.6771C10.4747 15.6771 10.011 15.8692 9.66917 16.211C9.32731 16.5529 9.13525 17.0166 9.13525 17.5C9.13525 17.9835 9.32731 18.4472 9.66917 18.789C10.011 19.1309 10.4747 19.3229 10.9582 19.3229C11.4416 19.3229 11.9053 19.1309 12.2472 18.789C12.589 18.4472 12.7811 17.9835 12.7811 17.5C12.7811 17.0166 12.589 16.5529 12.2472 16.211C11.9053 15.8692 11.4416 15.6771 10.9582 15.6771Z" fill="#002642"/>
</svg>
