<svg width="55" height="42" viewBox="0 0 55 42" fill="none" xmlns="http://www.w3.org/2000/svg">
<path d="M54.3389 31.5849H46.1169L44.3493 41.6282L38.6393 31.5849H16.998V25.842H39.2386V7.80919H54.3389V31.5849ZM37.3658 0.228516V24.0043H15.7256L10.0145 34.0509L8.24574 24.0043H0.0249023V0.228516H37.3658ZM13.2199 16.2564C13.2199 15.0918 11.7852 14.5089 10.9461 15.3322C10.107 16.1555 10.7011 17.5634 11.8879 17.5634C12.6236 17.5634 13.22 16.9782 13.22 16.2564H13.2199ZM20.3539 16.2564C20.3459 15.094 18.9118 14.5195 18.0769 15.344C17.2422 16.1687 17.8373 17.5722 19.0219 17.5722C19.761 17.5722 20.3588 16.9817 20.3539 16.2564ZM27.4879 16.2564C27.4879 15.0918 26.0531 14.5089 25.2141 15.3322C24.3749 16.1555 24.9691 17.5634 26.1559 17.5634C26.8915 17.5634 27.4879 16.9782 27.4879 16.2564Z" fill="#002642"/>
</svg>
