<svg width="51" height="51" viewBox="0 0 51 51" fill="none" xmlns="http://www.w3.org/2000/svg">
<path fill-rule="evenodd" clip-rule="evenodd" d="M10.3496 4.03809C8.69201 4.03809 7.10229 4.69657 5.93019 5.86867C4.75809 7.04077 4.09961 8.63048 4.09961 10.2881V41.5381C4.09961 43.1957 4.75809 44.7854 5.93019 45.9575C7.10229 47.1296 8.69201 47.7881 10.3496 47.7881H41.5996C43.2572 47.7881 44.8469 47.1296 46.019 45.9575C47.1911 44.7854 47.8496 43.1957 47.8496 41.5381V10.2881C47.8496 8.63048 47.1911 7.04077 46.019 5.86867C44.8469 4.69657 43.2572 4.03809 41.5996 4.03809H10.3496ZM13.7934 17.4662C14.7838 17.4662 15.7336 17.0728 16.434 16.3724C17.1343 15.6721 17.5277 14.7223 17.5277 13.7318C17.5277 12.7414 17.1343 11.7916 16.434 11.0912C15.7336 10.3909 14.7838 9.99746 13.7934 9.99746C12.8029 9.99746 11.8531 10.3909 11.1528 11.0912C10.4524 11.7916 10.059 12.7414 10.059 13.7318C10.059 14.7223 10.4524 15.6721 11.1528 16.3724C11.8531 17.0728 12.8029 17.4662 13.7934 17.4662ZM16.9184 40.9537V20.3943H10.6684V40.9537H16.9184ZM21.0684 20.3943H27.3184V23.1475C28.2402 21.7037 30.2652 19.76 34.0309 19.76C38.5246 19.76 40.9652 22.7381 40.9652 28.4037C40.9652 28.6756 40.9902 29.9162 40.9902 29.9162V40.9506H34.7402V29.9193C34.7402 28.4037 34.4215 25.4256 31.0527 25.4256C27.6809 25.4256 27.3965 29.1693 27.3184 31.6193V40.9506H21.0684V20.3943Z" fill="#F8F8F8"/>
</svg>
