<svg width="201" height="202" viewBox="0 0 201 202" fill="none" xmlns="http://www.w3.org/2000/svg">
<path d="M200.339 101.348C200.339 46.1964 155.618 1.48706 100.451 1.48706C45.2842 1.48706 0.562744 46.1964 0.562744 101.348C0.562744 156.5 45.2842 201.209 100.451 201.209C155.618 201.209 200.339 156.5 200.339 101.348Z" fill="white" stroke="white" stroke-miterlimit="10"/>
<path d="M105.836 168.905C102.699 168.666 99.5621 167.942 96.537 166.792C88.5522 163.753 81.6282 156.562 78.6628 148.236C78.0877 146.623 75.802 139.252 74.5397 134.876C71.5146 124.467 70.8797 122.608 69.6025 120.397C68.7136 118.837 67.7874 117.799 66.5026 116.91C64.8519 115.782 64.7398 115.76 58.2639 115.76H52.363V99.9815L58.4357 100.041C66.032 100.116 67.6977 99.9143 70.2074 98.5701C71.7685 97.7338 72.8964 96.6809 73.9346 95.0829C75.9066 92.0735 76.422 87.8246 75.2717 84.3149C74.1438 80.9023 71.9702 78.819 68.2355 77.5943C66.9732 77.1836 66.6595 77.1687 59.1378 77.094C54.8504 77.0567 51.0036 77.0791 50.5779 77.1537L49.8161 77.2657L49.9057 110.652L49.9804 144.061H42.1823C35.2432 144.061 34.3693 144.024 34.2722 143.763C34.2125 143.598 34.1602 125.132 34.1602 102.692V61.9128L51.0186 61.9726C60.2807 61.995 68.4894 62.0622 69.2513 62.1219C71.776 62.331 75.3015 63.1823 77.5872 64.1456C81.3219 65.7212 84.7204 68.3796 87.3721 71.7772C88.5597 73.3155 90.4868 77.3479 91.062 79.4761C92.399 84.5464 92.399 91.0729 91.0396 95.7325C89.4411 101.258 85.5795 106.052 80.5302 108.778C79.843 109.151 79.2678 109.487 79.2678 109.54C79.2678 109.592 79.716 109.928 80.2538 110.279C82.4797 111.765 84.7653 114.379 85.9902 116.865C86.8418 118.553 88.3506 123.265 91.3533 133.659C93.9302 142.531 95.0432 144.928 97.889 147.743C100.361 150.214 103.887 151.917 107.861 152.604C110.109 152.977 115.883 152.88 118.445 152.417C119.617 152.193 120.932 151.969 121.38 151.895L122.157 151.783V159.593C122.157 167.053 122.135 167.427 121.806 167.591C121.194 167.927 116.921 168.704 114.643 168.89C112.155 169.114 108.481 169.114 105.844 168.89L105.836 168.905Z" fill="#1C3056"/>
<path d="M149.211 143.113C148.838 142.635 146.761 139.85 144.573 136.953C141.249 132.532 135.161 124.534 132.562 121.174C128.424 115.79 125.436 111.84 124.824 110.966L124.084 109.906L124.107 100.31C124.122 92.5292 124.181 90.6624 124.383 90.3786C124.532 90.177 125.406 88.9897 126.31 87.7426C127.236 86.5031 128.282 85.0544 128.648 84.5168C129.021 83.9791 129.746 82.9934 130.224 82.3288C130.724 81.6642 132.838 78.8042 134.937 75.9815C137.036 73.144 140.248 68.8204 142.085 66.3487L145.424 61.8757L154.761 61.8533C161.02 61.8384 164.083 61.8906 164.083 62.0251C164.083 62.1371 163.582 62.9137 162.947 63.7724C162.32 64.6461 161.132 66.274 160.296 67.4314C156.658 72.5018 155.209 74.4806 151.034 80.1633C148.584 83.4863 146.209 86.6972 145.76 87.3095C145.312 87.9219 143.139 90.8341 140.95 93.8062L136.961 99.1677L137.484 99.8547C137.783 100.243 141.219 104.828 145.17 110.078C149.107 115.312 152.819 120.308 153.431 121.159C154.97 123.347 155.545 124.146 157.868 127.245C162.566 133.592 169.102 142.665 169.73 143.785C169.842 143.949 167.818 144.009 159.87 143.987H149.884L149.211 143.113Z" fill="#1C3056"/>
<path d="M106.643 143.837C106.606 143.763 106.554 125.169 106.554 102.506C106.539 75.0605 106.402 60.8626 106.143 59.9117C105.015 55.8495 101.833 52.5265 97.4185 50.8389C94.9088 49.8756 93.2581 49.6142 89.4561 49.6291C84.7579 49.6441 82.1212 50.1444 77.7068 51.8544C77.408 51.9664 77.3931 51.4661 77.3931 44.0212V36.0609L79.492 35.4486C82.5022 34.56 84.6683 34.1493 88.2536 33.8133C98.8526 32.835 108.249 35.5606 114.464 41.4225C118.385 45.1189 120.589 49.3827 121.813 55.5508L121.918 56.0959C122.105 57.089 122.202 59.1202 122.202 59.1202L122.254 100.803L122.306 143.987H114.531C110.243 143.987 106.695 143.934 106.643 143.837Z" fill="#1C3056"/>
</svg>
