<svg width="53" height="51" viewBox="0 0 53 51" fill="none" xmlns="http://www.w3.org/2000/svg">
<path d="M44.0371 8.72559H9.91211C8.40419 8.72714 6.95848 9.30381 5.89222 10.3291C4.82596 11.3543 4.22622 12.7444 4.22461 14.1943V37.6318C4.22622 39.0818 4.82596 40.4719 5.89222 41.4971C6.95848 42.5224 8.40419 43.099 9.91211 43.1006H44.0371C45.545 43.099 46.9907 42.5224 48.057 41.4971C49.1233 40.4719 49.723 39.0818 49.7246 37.6318V14.1943C49.723 12.7444 49.1233 11.3543 48.057 10.3291C46.9907 9.30381 45.545 8.72714 44.0371 8.72559ZM42.597 17.7715L27.972 28.709C27.6868 28.9222 27.3358 29.0379 26.9746 29.0379C26.6134 29.0379 26.2625 28.9222 25.9773 28.709L11.3523 17.7715C11.1804 17.6467 11.0361 17.4904 10.9277 17.3115C10.8192 17.1326 10.7488 16.9348 10.7206 16.7296C10.6924 16.5243 10.7068 16.3157 10.7631 16.1159C10.8195 15.916 10.9165 15.729 11.0487 15.5655C11.1809 15.4021 11.3455 15.2655 11.533 15.1638C11.7206 15.062 11.9272 14.9971 12.1411 14.9729C12.3549 14.9486 12.5716 14.9654 12.7787 15.0224C12.9857 15.0794 13.1788 15.1753 13.347 15.3047L26.9746 25.4961L40.6023 15.3047C40.943 15.0572 41.3714 14.9487 41.7947 15.0026C42.218 15.0564 42.6023 15.2684 42.8644 15.5925C43.1265 15.9166 43.2454 16.327 43.1954 16.7347C43.1453 17.1425 42.9303 17.5149 42.597 17.7715Z" fill="#F8F8F8"/>
</svg>
