<svg width="46" height="45" viewBox="0 0 46 45" fill="none" xmlns="http://www.w3.org/2000/svg">
<path d="M24.8752 16.7869H21.1252V13.1203H24.8752M24.8752 31.4536H21.1252V20.4536H24.8752M23.0002 3.95361C20.538 3.95361 18.0998 4.42782 15.8249 5.34916C13.5501 6.27049 11.4831 7.62092 9.74199 9.32332C6.22568 12.7615 4.25024 17.4246 4.25024 22.2869C4.25024 27.1492 6.22568 31.8124 9.74199 35.2506C11.4831 36.953 13.5501 38.3034 15.8249 39.2247C18.0998 40.1461 20.538 40.6203 23.0002 40.6203C27.9731 40.6203 32.7422 38.6887 36.2585 35.2506C39.7748 31.8124 41.7502 27.1492 41.7502 22.2869C41.7502 19.8794 41.2653 17.4954 40.323 15.2711C39.3807 13.0468 37.9996 11.0257 36.2585 9.32332C34.5174 7.62092 32.4504 6.27049 30.1756 5.34916C27.9007 4.42782 25.4625 3.95361 23.0002 3.95361Z" fill="#002642"/>
</svg>
