<svg width="35" height="35" viewBox="0 0 35 35" fill="none" xmlns="http://www.w3.org/2000/svg">
<path d="M26.2498 23.3334H23.3332V21.875H11.6665V23.3334H8.74984V21.875H2.9165V29.1667H32.0832V21.875H26.2498V23.3334ZM29.1665 11.6667H24.7915V8.75004C24.7915 7.14587 23.479 5.83337 21.8748 5.83337H13.1248C11.5207 5.83337 10.2082 7.14587 10.2082 8.75004V11.6667H5.83317C4.229 11.6667 2.9165 12.9792 2.9165 14.5834V20.4167H8.74984V17.5H11.6665V20.4167H23.3332V17.5H26.2498V20.4167H32.0832V14.5834C32.0832 12.9792 30.7707 11.6667 29.1665 11.6667ZM21.8748 11.6667H13.1248V8.75004H21.8748V11.6667Z" fill="#002642"/>
</svg>
