<svg width="47" height="51" viewBox="0 0 47 51" fill="none" xmlns="http://www.w3.org/2000/svg">
<g clip-path="url(#clip0_244_911)">
<path d="M21.1432 1.19933C22.3939 0.49277 24.0229 0.489579 25.2726 1.19933C31.5593 4.70536 37.8481 8.20589 44.1338 11.714C45.3161 12.3713 46.1069 13.6699 46.0949 15.0144V36.108C46.1037 37.5082 45.2347 38.8378 43.9874 39.4802C37.7213 42.9669 31.4584 46.4578 25.1933 49.9445C23.9167 50.6649 22.255 50.6094 21.0183 49.83C19.1397 48.7552 17.2579 47.6857 15.3791 46.6119C14.9952 46.386 14.5625 46.2062 14.2914 45.8389C14.531 45.5201 14.9595 45.4804 15.3076 45.3412C16.0918 45.0951 16.812 44.7 17.5324 44.3167C17.7146 44.1937 17.937 44.2408 18.1116 44.3509C19.718 45.26 21.3102 46.1954 22.922 47.0958C23.2659 47.2917 23.614 47.0316 23.9079 46.8699C30.0569 43.4399 36.2135 40.0229 42.3614 36.5919C42.5892 36.4837 42.7151 36.2451 42.6966 35.9988C42.7009 29.0405 42.6977 22.0809 42.6988 15.1226C42.7248 14.8431 42.561 14.5862 42.305 14.4718C36.0606 11.0011 29.8194 7.52504 23.5761 4.05341C23.468 3.98001 23.3398 3.94063 23.2086 3.94044C23.0773 3.94025 22.949 3.97926 22.8407 4.05234C16.5973 7.52504 10.3573 11.0043 4.11395 14.4749C3.85885 14.5894 3.68764 14.8421 3.718 15.1226C3.71908 22.0809 3.718 29.0405 3.718 35.9999C3.70718 36.12 3.73392 36.2406 3.79462 36.3453C3.85533 36.45 3.94709 36.5338 4.05754 36.5855C5.72359 37.5179 7.39181 38.4438 9.05894 39.3731C9.99814 39.872 11.1513 40.1685 12.1861 39.7862C13.0992 39.463 13.7393 38.5433 13.7219 37.5864C13.7305 30.6687 13.7176 23.7499 13.7284 16.8332C13.7055 16.5261 14.0007 16.2724 14.3032 16.3013C15.1037 16.296 15.9053 16.2906 16.7058 16.3034C17.04 16.296 17.2699 16.6266 17.2286 16.936C17.2254 23.8976 17.2372 30.8593 17.2232 37.8208C17.2254 39.6761 16.4531 41.6949 14.7143 42.6027C12.5721 43.6979 9.92449 43.4656 7.80823 42.4155C5.97618 41.513 4.22784 40.4479 2.42831 39.4811C1.17778 38.8422 0.313129 37.5073 0.321932 36.1082V15.0144C0.308818 13.6421 1.13107 12.3199 2.35016 11.6722C8.61521 8.18266 14.8792 4.69047 21.1432 1.19933Z" fill="#8CC84B"/>
<path d="M26.6089 15.8109C29.3413 15.6374 32.2665 15.7081 34.7254 17.0367C36.6291 18.0547 37.6846 20.1914 37.7181 22.2789C37.665 22.5604 37.3668 22.7157 37.0944 22.6964C36.3016 22.6953 35.5087 22.707 34.7159 22.6911C34.3796 22.7039 34.1841 22.3978 34.1419 22.1044C33.9141 21.1056 33.3622 20.1164 32.4097 19.6347C30.9476 18.9122 29.2522 18.9485 27.6578 18.9636C26.4939 19.0246 25.2423 19.1241 24.2562 19.7996C23.4992 20.3113 23.2692 21.3443 23.5394 22.1762C23.7942 22.7735 24.4928 22.9663 25.0644 23.1439C28.3574 23.9939 31.8469 23.9093 35.077 25.028C36.4143 25.484 37.7225 26.3705 38.1802 27.7524C38.779 29.6046 38.5165 31.8184 37.1814 33.3053C36.0986 34.5289 34.5217 35.1948 32.9488 35.5565C30.8565 36.017 28.6851 36.0287 26.5602 35.8242C24.5621 35.5994 22.4829 35.0813 20.9404 33.7377C19.6215 32.6074 18.9772 30.8462 19.0412 29.1464C19.0565 28.8593 19.3461 28.6592 19.6247 28.6828C20.4231 28.6764 21.2214 28.6742 22.0198 28.6838C22.3386 28.6613 22.5751 28.9333 22.5914 29.2299C22.7387 30.1815 23.1011 31.1803 23.9418 31.7445C25.5644 32.7776 27.6004 32.7069 29.4583 32.7358C30.9975 32.6684 32.7254 32.648 33.9815 31.6439C34.6442 31.0712 34.8405 30.1131 34.6614 29.2888C34.4674 28.5929 33.7298 28.2686 33.0963 28.0565C29.8456 27.0416 26.3171 27.4099 23.0978 26.2622C21.7909 25.8063 20.5271 24.9445 20.025 23.6193C19.3243 21.7437 19.6454 19.4239 21.1204 17.9872C22.5587 16.5581 24.6349 16.0079 26.6089 15.8109Z" fill="#8CC84B"/>
</g>
<defs>
<clipPath id="clip0_244_911">
<rect width="46" height="50" fill="white" transform="translate(0.213379 0.564697)"/>
</clipPath>
</defs>
</svg>
