<svg width="46" height="51" viewBox="0 0 46 51" fill="none" xmlns="http://www.w3.org/2000/svg">
<path d="M40.3496 35.1214V42.4881C40.3498 43.0155 40.17 43.5234 39.8463 43.9093C39.5227 44.2952 39.0794 44.5303 38.6059 44.5673C37.7865 44.6298 37.1171 44.6631 36.5996 44.6631C20.0302 44.6631 6.59961 29.7402 6.59961 11.3298C6.59961 10.7548 6.62773 10.011 6.68586 9.10059C6.71909 8.57443 6.9307 8.08186 7.27799 7.72227C7.62528 7.36268 8.0824 7.16285 8.55711 7.16309H15.1871C15.4197 7.16282 15.644 7.25863 15.8166 7.43188C15.9892 7.60513 16.0976 7.84347 16.1209 8.10059C16.164 8.57975 16.2034 8.961 16.2409 9.25059C16.6135 12.14 17.3771 14.9502 18.5059 17.586C18.684 18.0027 18.5677 18.5006 18.2302 18.7673L14.184 21.9798C16.658 28.3849 21.2519 33.4892 27.0165 36.2381L29.904 31.7506C30.022 31.5672 30.1942 31.4358 30.3905 31.379C30.5869 31.3223 30.7949 31.3439 30.9784 31.4402C33.3502 32.6921 35.8788 33.5385 38.4784 33.9506C38.739 33.9923 39.0821 34.036 39.5096 34.0839C39.7407 34.1102 39.9547 34.2309 40.1103 34.4226C40.2658 34.6143 40.3499 34.8633 40.3496 35.1214Z" fill="#F8F8F8"/>
</svg>
