<svg width="61" height="32" viewBox="0 0 61 32" fill="none" xmlns="http://www.w3.org/2000/svg">
<g clip-path="url(#clip0_244_885)">
<path d="M30.7134 31.5405C47.2819 31.5405 60.7134 24.6072 60.7134 16.0545C60.7134 7.50172 47.2819 0.568359 30.7134 0.568359C14.1448 0.568359 0.713379 7.50172 0.713379 16.0545C0.713379 24.6072 14.1448 31.5405 30.7134 31.5405Z" fill="#8993BE"/>
<path fill-rule="evenodd" clip-rule="evenodd" d="M9.13794 25.2238L12.4258 8.71878H20.0282C23.3158 8.92261 24.9597 10.5526 24.9597 13.4055C24.9597 18.2958 21.0557 21.1486 17.5623 20.9447H13.8641L13.0422 25.2238H9.13794ZM14.6858 17.8884L15.7133 11.7753H18.3845C19.8229 11.7753 20.8501 12.3866 20.8501 13.6091C20.6448 17.0733 19.0009 17.6846 17.1517 17.8884H14.6858ZM24.1958 20.9447L27.4834 4.43994H31.3876L30.5657 8.71878H34.2641C37.5519 8.92261 38.7847 10.5526 38.3739 12.5904L36.9355 20.9447H32.826L34.2643 13.4055C34.4697 12.3866 34.4697 11.7753 33.0315 11.7753H29.9493L28.1 20.9447H24.1958ZM36.6723 25.2238L39.9599 8.71878H47.5626C50.8504 8.92261 52.4943 10.5526 52.4943 13.4055C52.4943 18.2958 48.59 21.1486 45.0969 20.9447H41.3983L40.5763 25.2238H36.6723ZM42.22 17.8884L43.2475 11.7753H45.9189C47.3572 11.7753 48.3845 12.3866 48.3845 13.6091C48.1792 17.0733 46.5353 17.6846 44.6861 17.8884H42.2202H42.22Z" fill="#232531"/>
</g>
<defs>
<clipPath id="clip0_244_885">
<rect width="60" height="31.1538" fill="white" transform="translate(0.713379 0.568359)"/>
</clipPath>
</defs>
</svg>
