<svg width="52" height="52" viewBox="0 0 52 52" fill="none" xmlns="http://www.w3.org/2000/svg">
<g clip-path="url(#clip0_244_915)">
<path d="M2.83838 2.66162H49.5884V49.2931H2.83838V2.66162Z" fill="url(#paint0_radial_244_915)"/>
<path d="M2.83835 2.66168H49.5884V49.2932H2.83835V2.66168ZM0.713379 51.4723H51.7134V0.482666H0.713379V51.4723ZM31.3134 22.0116C31.3134 21.7501 31.3134 21.1182 31.2071 19.8979C31.2071 19.7236 31.2284 19.68 31.3771 19.6146C32.6734 19.0698 35.7121 18.1111 39.1546 18.1111C39.3246 18.1111 39.4096 18.1547 39.4096 18.329V21.4886C39.4096 21.6629 39.3458 21.7065 39.1758 21.7065C37.837 21.6411 35.9034 21.8154 35.1595 22.1422V35.8703C35.1595 36.0445 35.0958 36.1317 34.9045 36.1317H31.5683C31.3984 36.1317 31.3133 36.0664 31.3133 35.8703V22.0116H31.3134ZM17.7134 23.9945C18.2021 24.0381 18.5846 24.0381 19.4347 24.0381C21.9209 24.0381 24.2585 23.1447 24.2585 19.6801C24.2585 16.9127 22.6009 15.518 19.7534 15.518C18.9034 15.518 18.0959 15.5616 17.7134 15.5834V23.9945ZM13.9521 12.4238C13.9521 12.2713 13.9946 12.1622 14.1646 12.1622C15.5246 12.0969 17.5221 12.0533 19.6259 12.0533C25.5121 12.0533 28.0834 15.3654 28.0834 19.6146C28.0834 25.1493 24.1734 27.5245 19.3709 27.5245C18.5634 27.5245 18.2872 27.4809 17.7134 27.4809V35.8485C17.7134 36.0228 17.6497 36.1099 17.4584 36.1099H14.1859C14.0159 36.1099 13.9308 36.0446 13.9308 35.8485V12.4238H13.9521Z" fill="#E579FF"/>
</g>
<defs>
<radialGradient id="paint0_radial_244_915" cx="0" cy="0" r="1" gradientUnits="userSpaceOnUse" gradientTransform="translate(18.2356 13.1118) scale(35.53 35.2743)">
<stop stop-color="#4B2D4F" stop-opacity="0.98"/>
<stop offset="1" stop-color="#180024"/>
</radialGradient>
<clipPath id="clip0_244_915">
<rect width="51" height="51" fill="white" transform="translate(0.713379 0.477539)"/>
</clipPath>
</defs>
</svg>
