<svg width="47" height="53" viewBox="0 0 47 53" fill="none" xmlns="http://www.w3.org/2000/svg">
<g clip-path="url(#clip0_244_876)">
<path d="M46.7134 26.073C46.7134 23.0499 42.8972 20.1849 37.0464 18.4082C38.3966 12.4922 37.7965 7.78541 35.1524 6.2785C34.543 5.92503 33.8304 5.75759 33.0521 5.75759V7.83192C33.4835 7.83192 33.8304 7.91564 34.121 8.07377C35.3962 8.79932 35.9494 11.562 35.5181 15.1153C35.415 15.9897 35.2462 16.9106 35.0399 17.8501C33.2022 17.4036 31.1956 17.0594 29.086 16.8362C27.8202 15.1153 26.5075 13.5526 25.1855 12.1852C28.2421 9.36674 31.1113 7.82262 33.0615 7.82262V5.74829C30.483 5.74829 27.1076 7.57147 23.6946 10.7341C20.2817 7.59007 16.9062 5.7855 14.3277 5.7855V7.85983C16.2686 7.85983 19.1471 9.39464 22.2038 12.1945C20.8911 13.5619 19.5784 15.1153 18.3314 16.8362C16.2124 17.0594 14.2058 17.4036 12.3681 17.8594C12.1524 16.9292 11.993 16.0269 11.8805 15.1618C11.4398 11.6085 11.9837 8.84583 13.2495 8.11098C13.5307 7.94354 13.8964 7.86913 14.3277 7.86913V5.7948C13.5401 5.7948 12.8275 5.96223 12.2087 6.31571C9.57396 7.82262 8.98325 12.5201 10.3428 18.4175C4.51077 20.2035 0.713379 23.0592 0.713379 26.073C0.713379 29.0961 4.52952 31.9611 10.3803 33.7378C9.03013 39.6538 9.63022 44.3605 12.2743 45.8675C12.8838 46.2209 13.5964 46.3884 14.384 46.3884C16.9625 46.3884 20.3379 44.5652 23.7509 41.4025C27.1638 44.5466 30.5393 46.3512 33.1178 46.3512C33.9054 46.3512 34.618 46.1837 35.2368 45.8302C37.8716 44.3233 38.4623 39.6259 37.1027 33.7285C42.916 31.9518 46.7134 29.0868 46.7134 26.073ZM34.5055 19.8686C34.1585 21.0685 33.7272 22.3057 33.2397 23.5429C32.8552 22.7987 32.4521 22.0545 32.0114 21.3104C31.5801 20.5662 31.1206 19.8407 30.6612 19.1337C31.9926 19.3291 33.2772 19.5709 34.5055 19.8686ZM30.2111 29.7751C29.4798 31.0309 28.7297 32.2215 27.9515 33.3285C26.5544 33.4494 25.1386 33.5145 23.7134 33.5145C22.2976 33.5145 20.8817 33.4494 19.4941 33.3378C18.7158 32.2308 17.9563 31.0495 17.225 29.803C16.5124 28.5845 15.8654 27.3473 15.2747 26.1009C15.8561 24.8544 16.5124 23.608 17.2156 22.3894C17.947 21.1337 18.6971 19.943 19.4753 18.8361C20.8724 18.7152 22.2882 18.65 23.7134 18.65C25.1292 18.65 26.545 18.7152 27.9327 18.8268C28.7109 19.9337 29.4704 21.1151 30.2018 22.3615C30.9144 23.5801 31.5613 24.8172 32.152 26.0637C31.5613 27.3101 30.9144 28.5566 30.2111 29.7751ZM33.2397 28.5659C33.746 29.8123 34.1773 31.0588 34.5336 32.2681C33.3053 32.5657 32.0114 32.8169 30.6706 33.0122C31.13 32.296 31.5895 31.5611 32.0208 30.8077C32.4521 30.0635 32.8552 29.31 33.2397 28.5659ZM23.7321 38.491C22.8601 37.5981 21.9881 36.6027 21.1255 35.5144C21.9694 35.5516 22.832 35.5795 23.704 35.5795C24.5854 35.5795 25.4574 35.5609 26.3106 35.5144C25.4667 36.6027 24.5948 37.5981 23.7321 38.491ZM16.7562 33.0122C15.4248 32.8169 14.1402 32.575 12.9119 32.2774C13.2588 31.0774 13.6901 29.8403 14.1777 28.6031C14.5621 29.3473 14.9653 30.0914 15.406 30.8356C15.8467 31.5797 16.2967 32.3053 16.7562 33.0122ZM23.6853 13.6549C24.5572 14.5479 25.4292 15.5432 26.2919 16.6315C25.448 16.5943 24.5854 16.5664 23.7134 16.5664C22.832 16.5664 21.96 16.585 21.1068 16.6315C21.9506 15.5432 22.8226 14.5479 23.6853 13.6549ZM16.7468 19.1337C16.2874 19.85 15.8279 20.5848 15.3966 21.3383C14.9653 22.0825 14.5621 22.8266 14.1777 23.5708C13.6714 22.3243 13.2401 21.0778 12.8838 19.8686C14.1121 19.5802 15.406 19.3291 16.7468 19.1337ZM8.26128 30.7797C4.94208 29.3752 2.79491 27.5334 2.79491 26.073C2.79491 24.6126 4.94208 22.7615 8.26128 21.3662C9.06764 21.022 9.94901 20.7151 10.8585 20.4267C11.393 22.2499 12.0962 24.1475 12.9682 26.0916C12.1056 28.0264 11.4117 29.9147 10.8866 31.7285C9.95839 31.4402 9.07702 31.1239 8.26128 30.7797ZM13.3057 44.0722C12.0305 43.3466 11.4773 40.584 11.9087 37.0306C12.0118 36.1563 12.1806 35.2354 12.3868 34.2959C14.2246 34.7424 16.2311 35.0865 18.3408 35.3098C19.6066 37.0306 20.9192 38.5934 22.2413 39.9607C19.1846 42.7792 16.3155 44.3233 14.3652 44.3233C13.9433 44.314 13.587 44.2303 13.3057 44.0722ZM35.5462 36.9841C35.9869 40.5375 35.4431 43.3001 34.1773 44.035C33.896 44.2024 33.5303 44.2768 33.099 44.2768C31.1581 44.2768 28.2796 42.742 25.223 39.9421C26.5356 38.5748 27.8483 37.0213 29.0954 35.3005C31.2144 35.0772 33.2209 34.7331 35.0587 34.2773C35.2743 35.2168 35.4431 36.119 35.5462 36.9841ZM39.1561 30.7797C38.3497 31.1239 37.4684 31.4309 36.5589 31.7192C36.0244 29.8961 35.3212 27.9985 34.4492 26.0544C35.3118 24.1196 36.0057 22.2313 36.5307 20.4174C37.459 20.7058 38.3404 21.022 39.1655 21.3662C42.4847 22.7708 44.6318 24.6126 44.6318 26.073C44.6225 27.5334 42.4753 29.3845 39.1561 30.7797Z" fill="#61DAFB"/>
<path d="M23.7039 30.324C26.0704 30.324 27.9889 28.4207 27.9889 26.073C27.9889 23.7252 26.0704 21.822 23.7039 21.822C21.3374 21.822 19.4189 23.7252 19.4189 26.073C19.4189 28.4207 21.3374 30.324 23.7039 30.324Z" fill="#61DAFB"/>
</g>
<defs>
<clipPath id="clip0_244_876">
<rect width="46" height="52" fill="white" transform="translate(0.713379 0.0683594)"/>
</clipPath>
</defs>
</svg>
