<svg width="56" height="56" viewBox="0 0 56 56" fill="none" xmlns="http://www.w3.org/2000/svg">
<g clip-path="url(#clip0_244_905)">
<path d="M48.0434 32.0739C46.1206 32.0883 44.4555 32.7041 43.0591 33.6209C42.5434 32.2602 42.0278 31.0712 41.942 30.1834C41.8453 29.1521 41.7271 28.5218 41.8453 27.2901C41.9634 26.0582 42.5005 24.3108 42.5005 24.1676C42.4896 24.0387 42.3822 23.4085 41.2759 23.3942C40.1695 23.3798 39.2134 23.6806 39.1059 24.0673C38.9985 24.4541 38.7837 25.3421 38.644 26.2587C38.4507 27.6051 36.4311 32.3746 35.2817 34.8811C34.9057 33.9072 34.5835 33.0478 34.5189 32.3602C34.4223 31.3291 34.3041 30.6987 34.4223 29.4671C34.5405 28.2352 35.0776 26.4879 35.0776 26.3447C35.0669 26.2158 34.9594 25.5856 33.8531 25.5712C32.7466 25.5569 31.7906 25.8577 31.6832 26.2444C31.5758 26.6311 31.4576 27.5478 31.2213 28.4358C30.9956 29.3239 28.31 37.2874 27.6118 39.3642C27.2573 40.4241 26.9459 41.2692 26.7202 41.8421C26.4946 42.415 26.7094 41.8851 26.688 41.9423C26.4946 42.4293 26.3872 42.7015 26.3872 42.7015V42.7159C26.2368 43.074 26.0757 43.4176 26.0004 43.4176C25.9466 43.4176 25.8392 42.458 26.0218 41.1404C26.4193 38.3759 27.3861 34.0649 27.3755 33.9073C27.3755 33.8357 27.558 33.0765 26.7523 32.6899C25.9681 32.3032 25.6889 32.9477 25.6244 32.9477C25.5599 32.9477 25.5062 33.1769 25.5062 33.1769C25.5062 33.1769 26.3763 28.3215 23.8412 28.3215C22.2513 28.3215 20.0599 30.6275 18.975 32.733C18.2875 33.2343 16.8265 34.294 15.2797 35.4257C14.6888 35.8554 14.0765 36.3137 13.4964 36.7291L13.3784 36.5569C10.3061 32.1884 4.62351 29.0947 4.85984 23.2223C4.94577 21.0882 5.50437 15.4593 15.774 8.64156C24.1851 3.05563 30.9205 4.58818 32.0913 7.99703C33.7563 12.8668 28.4927 21.9189 19.7486 23.2223C16.4185 23.7236 14.6675 22.0048 14.2271 21.3603C13.7652 20.6871 13.7008 20.6585 13.5289 20.7874C13.2496 20.9879 13.4215 21.5895 13.5289 21.9475C13.7867 22.8499 14.8609 24.4541 16.6871 25.2561C18.2876 25.958 22.1978 26.3447 26.9244 23.9098C32.2203 21.1741 36.356 13.583 35.1422 7.23792C33.9068 0.778282 25.8717 -1.34151 18.2769 2.25354C13.7544 4.40198 8.85593 7.75354 5.33249 12.1507C1.14304 17.3642 0.477025 21.9189 0.756321 23.8095C1.73397 30.5556 8.70554 34.9528 11.4985 38.2041C11.3589 38.3042 11.23 38.4044 11.1118 38.4905C9.71531 39.407 4.39792 43.1168 3.06589 47.0412C1.56199 51.4813 3.30222 54.6754 4.46238 55.1051C8.05027 56.4371 11.7241 54.0452 13.7114 50.1064C15.6879 46.1676 15.4516 41.0543 14.5385 38.7197L14.5062 38.6337L15.6019 37.7744C16.311 37.2158 17.0093 36.7002 17.6214 36.256C17.2778 37.5021 17.0306 38.9774 16.9018 41.1258C16.7514 43.6468 17.5249 46.9123 18.5454 48.2013C18.9966 48.7598 19.5337 48.7742 19.8667 48.7742C21.0483 48.7742 21.5854 47.4707 22.1762 45.9096C22.9067 44.0047 23.5512 41.799 23.5512 41.799C23.5512 41.799 22.7456 47.7716 24.9477 47.7716C25.7534 47.7716 26.5591 46.3823 26.9243 45.6662V45.6805C26.9243 45.6805 26.9458 45.6375 26.9887 45.5373C27.0338 45.4484 27.0768 45.3577 27.1177 45.2653V45.2366C27.4399 44.4918 28.1596 42.7874 29.2339 39.9658C30.6195 36.3278 31.9516 31.7731 31.9516 31.7731C31.9516 31.7731 32.0805 32.8903 32.478 34.7236C32.7142 35.8123 33.2298 37.0009 33.6273 38.1611C33.305 38.7627 33.1117 39.1065 33.1117 39.1065L33.1224 39.1209C32.8647 39.5792 32.5746 40.0663 32.2739 40.5532C31.1782 42.3006 29.8676 44.2916 29.6958 44.8645C29.4917 45.5375 29.5346 46.0388 29.9321 46.44C30.2221 46.7265 30.7378 46.7836 31.2856 46.7265C32.2739 46.6404 32.9614 46.3111 33.3052 46.1105C33.8423 45.8526 34.4546 45.4659 35.0454 44.893C36.1196 43.8333 36.7749 42.3293 36.7104 40.3241C36.6782 39.2213 36.4096 38.1327 36.0766 37.1015C36.1733 36.9153 36.2701 36.7289 36.3667 36.5286C38.0639 33.2198 39.3745 29.582 39.3745 29.582C39.3745 29.582 39.5034 30.6991 39.9009 32.5325C40.1048 33.4635 40.5132 34.4805 40.8784 35.4831C39.2885 37.2162 38.2895 39.2214 37.9458 40.5391C37.312 42.974 37.8061 44.0769 38.7407 44.3347C39.1595 44.4493 39.7612 44.1915 40.2123 43.9337C40.7709 43.6902 41.4476 43.2747 42.0708 42.6589C43.145 41.599 44.1762 40.1238 44.1225 38.1329C44.0903 37.2162 43.9077 36.3139 43.6606 35.4545C45.0141 34.7097 46.765 34.28 48.9887 34.6381C53.769 35.3829 54.7143 39.3646 54.5318 41.0261C54.3492 42.6877 53.3502 43.6042 53.0171 43.8907C52.6841 44.1628 52.5766 44.2632 52.6089 44.4636C52.6518 44.7645 52.8022 44.7501 53.0923 44.6929C53.4897 44.6068 55.6059 43.3322 55.6919 40.2673C55.8208 36.3279 53.0171 32.031 48.0434 32.0739ZM11.1762 48.6455C9.59714 50.9515 7.37351 51.8252 6.4282 51.0804C5.40769 50.2926 5.80504 46.8981 7.74949 44.4489C8.93113 42.9593 10.4673 41.5843 11.477 40.7392C11.7026 40.553 12.0464 40.281 12.4546 39.9515C12.519 39.8943 12.562 39.8655 12.562 39.8655C12.6372 39.8082 12.7231 39.7366 12.8091 39.665C13.5288 43.1598 12.8413 46.2249 11.1762 48.6455ZM22.7241 38.1754C22.1762 39.9658 21.0161 44.5634 20.3178 44.3056C19.7162 44.0908 19.351 40.6103 20.1996 37.1728C20.6293 35.4396 21.5423 33.3772 22.0795 32.575C22.9497 31.2859 23.8949 30.8563 24.1313 31.3862C24.4106 32.0739 23.0678 37.0582 22.7241 38.1754ZM32.2524 44.2483C32.0161 44.406 31.8012 44.5205 31.7046 44.4347C31.6294 44.3774 31.8011 44.1625 31.8011 44.1625C31.8011 44.1625 32.9935 42.4581 33.4662 41.6704C33.7347 41.2122 34.057 40.6822 34.4007 40.0805V40.2524C34.4009 42.3147 32.9184 43.6897 32.2524 44.2483ZM39.6 42.014C39.4281 41.8421 39.4497 41.3121 40.0297 39.6507C40.2553 38.9918 40.7709 37.889 41.6625 36.8434C41.7699 37.2731 41.8344 37.6883 41.8236 38.0752C41.813 40.6533 40.438 41.6129 39.6 42.014Z" fill="#CF649A"/>
</g>
<defs>
<clipPath id="clip0_244_905">
<rect width="55" height="55" fill="white" transform="translate(0.713379 0.477539)"/>
</clipPath>
</defs>
</svg>
