<svg width="24" height="24" viewBox="0 0 19 19" fill="none" xmlns="http://www.w3.org/2000/svg">

<mask id="mask0_291_1075" style="mask-type:luminance" maskUnits="userSpaceOnUse" x="0" y="0" width="19" height="19">
<path d="M0.700684 0.243866H18.7007V18.2439H0.700684V0.243866Z" fill="white"/>
<path fill-rule="evenodd" clip-rule="evenodd" d="M9.70038 12.0131C10.4348 12.0131 11.1392 11.7213 11.6585 11.202C12.1779 10.6827 12.4696 9.97829 12.4696 9.24384C12.4696 8.50939 12.1779 7.80503 11.6585 7.2857C11.1392 6.76637 10.4348 6.47461 9.70038 6.47461C8.96594 6.47461 8.26157 6.76637 7.74224 7.2857C7.22291 7.80503 6.93115 8.50939 6.93115 9.24384C6.93115 9.97829 7.22291 10.6827 7.74224 11.202C8.26157 11.7213 8.96594 12.0131 9.70038 12.0131ZM9.70038 7.85922C10.0676 7.85922 10.4198 8.0051 10.6795 8.26477C10.9391 8.52444 11.085 8.87662 11.085 9.24384C11.085 9.61106 10.9391 9.96325 10.6795 10.2229C10.4198 10.4826 10.0676 10.6285 9.70038 10.6285C9.33316 10.6285 8.98098 10.4826 8.72131 10.2229C8.46165 9.96325 8.31577 9.61106 8.31577 9.24384C8.31577 8.87662 8.46165 8.52444 8.72131 8.26477C8.98098 8.0051 9.33316 7.85922 9.70038 7.85922Z" fill="black"/>
<path d="M3.12354 9.24385C3.12354 9.06024 3.19647 8.88415 3.32631 8.75432C3.45614 8.62449 3.63223 8.55155 3.81584 8.55155H5.20046C5.38407 8.55155 5.56016 8.62449 5.68999 8.75432C5.81983 8.88415 5.89277 9.06024 5.89277 9.24385C5.89277 9.42747 5.81983 9.60356 5.68999 9.73339C5.56016 9.86322 5.38407 9.93616 5.20046 9.93616H3.81584C3.63223 9.93616 3.45614 9.86322 3.32631 9.73339C3.19647 9.60356 3.12354 9.42747 3.12354 9.24385ZM13.5082 9.24385C13.5082 9.06024 13.5811 8.88415 13.7109 8.75432C13.8408 8.62449 14.0168 8.55155 14.2005 8.55155H15.5851C15.7687 8.55155 15.9448 8.62449 16.0746 8.75432C16.2044 8.88415 16.2774 9.06024 16.2774 9.24385C16.2774 9.42747 16.2044 9.60356 16.0746 9.73339C15.9448 9.86322 15.7687 9.93616 15.5851 9.93616H14.2005C14.0168 9.93616 13.8408 9.86322 13.7109 9.73339C13.5811 9.60356 13.5082 9.42747 13.5082 9.24385ZM12.4697 12.0131C12.5995 11.8833 12.7756 11.8104 12.9592 11.8104C13.1427 11.8104 13.3188 11.8833 13.4486 12.0131L14.4275 12.992C14.4937 13.0559 14.5464 13.1323 14.5827 13.2167C14.619 13.3012 14.6381 13.392 14.6389 13.484C14.6397 13.5759 14.6221 13.667 14.5873 13.7521C14.5525 13.8372 14.5011 13.9145 14.4361 13.9795C14.3711 14.0445 14.2938 14.0959 14.2087 14.1307C14.1237 14.1655 14.0325 14.1831 13.9406 14.1823C13.8486 14.1815 13.7578 14.1624 13.6733 14.1261C13.5889 14.0898 13.5125 14.0371 13.4486 13.9709L12.4697 12.992C12.3399 12.8622 12.267 12.6861 12.267 12.5025C12.267 12.319 12.3399 12.1429 12.4697 12.0131ZM4.8543 4.3977C4.98413 4.26791 5.16019 4.195 5.34377 4.195C5.52734 4.195 5.7034 4.26791 5.83323 4.3977L6.81215 5.37662C6.87827 5.44049 6.93101 5.51688 6.9673 5.60134C7.00358 5.68581 7.02268 5.77665 7.02348 5.86858C7.02428 5.9605 7.00676 6.05166 6.97195 6.13675C6.93714 6.22183 6.88573 6.29913 6.82073 6.36413C6.75573 6.42913 6.67843 6.48054 6.59335 6.51535C6.50827 6.55016 6.4171 6.56767 6.32518 6.56687C6.23326 6.56607 6.14241 6.54698 6.05795 6.51069C5.97348 6.47441 5.89709 6.42167 5.83323 6.35555L4.8543 5.37662C4.72452 5.2468 4.65161 5.07074 4.65161 4.88716C4.65161 4.70359 4.72452 4.52753 4.8543 4.3977ZM9.70046 13.0515C9.88407 13.0515 10.0602 13.1245 10.19 13.2543C10.3198 13.3842 10.3928 13.5602 10.3928 13.7439V15.1285C10.3928 15.3121 10.3198 15.4882 10.19 15.618C10.0602 15.7478 9.88407 15.8208 9.70046 15.8208C9.51685 15.8208 9.34076 15.7478 9.21092 15.618C9.08109 15.4882 9.00815 15.3121 9.00815 15.1285V13.7439C9.00815 13.5602 9.08109 13.3842 9.21092 13.2543C9.34076 13.1245 9.51685 13.0515 9.70046 13.0515ZM9.70046 2.66693C9.88407 2.66693 10.0602 2.73987 10.19 2.8697C10.3198 2.99954 10.3928 3.17563 10.3928 3.35924V4.74385C10.3928 4.92747 10.3198 5.10356 10.19 5.23339C10.0602 5.36322 9.88407 5.43616 9.70046 5.43616C9.51685 5.43616 9.34076 5.36322 9.21092 5.23339C9.08109 5.10356 9.00815 4.92747 9.00815 4.74385V3.35924C9.00815 3.17563 9.08109 2.99954 9.21092 2.8697C9.34076 2.73987 9.51685 2.66693 9.70046 2.66693ZM14.4275 4.3977C14.5573 4.52753 14.6302 4.70359 14.6302 4.88716C14.6302 5.07074 14.5573 5.2468 14.4275 5.37662L13.4486 6.35555C13.3847 6.42167 13.3084 6.47441 13.2239 6.51069C13.1394 6.54698 13.0486 6.56607 12.9567 6.56687C12.8647 6.56767 12.7736 6.55016 12.6885 6.51535C12.6034 6.48054 12.5261 6.42913 12.4611 6.36413C12.3961 6.29913 12.3447 6.22183 12.3099 6.13675C12.2751 6.05166 12.2576 5.9605 12.2584 5.86858C12.2592 5.77665 12.2783 5.68581 12.3145 5.60134C12.3508 5.51688 12.4036 5.44049 12.4697 5.37662L13.4486 4.3977C13.5784 4.26791 13.7545 4.195 13.9381 4.195C14.1216 4.195 14.2977 4.26791 14.4275 4.3977ZM6.81215 12.992L5.83323 13.9709C5.76936 14.0371 5.69297 14.0898 5.60851 14.1261C5.52404 14.1624 5.4332 14.1815 5.34127 14.1823C5.24935 14.1831 5.15819 14.1655 5.07311 14.1307C4.98802 14.0959 4.91073 14.0445 4.84572 13.9795C4.78072 13.9145 4.72931 13.8372 4.6945 13.7521C4.6597 13.667 4.64218 13.5759 4.64298 13.484C4.64378 13.392 4.66287 13.3012 4.69916 13.2167C4.73544 13.1323 4.78818 13.0559 4.8543 12.992L5.83323 12.0131C5.9638 11.887 6.13868 11.8172 6.3202 11.8188C6.50172 11.8203 6.67536 11.8932 6.80372 12.0215C6.93208 12.1499 7.00489 12.3235 7.00646 12.505C7.00804 12.6866 6.93826 12.8614 6.81215 12.992Z" fill="black"/>
</mask>
<g opacity="0.5" mask="url(#mask0_291_1075)">

<path d="M9.70068 18.2439C14.6712 18.2439 18.7007 14.2144 18.7007 9.24387C18.7007 4.2733 14.6712 0.243866 9.70068 0.243866C4.73012 0.243866 0.700684 4.2733 0.700684 9.24387C0.700684 14.2144 4.73012 18.2439 9.70068 18.2439Z" fill="#FCFCFC"/>
</g>
</svg>
