<svg width="53" height="32" viewBox="0 0 53 32" fill="none" xmlns="http://www.w3.org/2000/svg">
<g clip-path="url(#clip0_244_880)">
<path d="M26.7133 0.433594C19.7825 0.433594 15.451 3.87811 13.7182 10.7665C16.3175 7.32198 19.3496 6.03077 22.8147 6.89158C24.792 7.38273 26.2051 8.809 27.7696 10.3871C30.3175 12.9579 33.2665 15.9333 39.7085 15.9333C46.6387 15.9333 50.9708 12.4888 52.703 5.59972C50.1044 9.04424 47.0722 10.3361 43.6065 9.47529C41.6299 8.98414 40.2168 7.55786 38.6523 5.97972C36.1043 3.40893 33.1547 0.433594 26.7133 0.433594ZM13.7182 15.9333C6.78801 15.9333 2.45585 19.3778 0.723633 26.2668C3.32228 22.8223 6.35447 21.5304 9.82019 22.3919C11.7968 22.8837 13.2099 24.3093 14.7744 25.8868C17.3223 28.4576 20.272 31.4336 26.7133 31.4336C33.6441 31.4336 37.9757 27.9891 39.7085 21.1C37.1092 24.5446 34.077 25.8364 30.612 24.975C28.6347 24.4845 27.2216 23.0575 25.6571 21.48C23.1092 18.9093 20.1602 15.9333 13.7182 15.9333Z" fill="#06B6D4"/>
</g>
<defs>
<clipPath id="clip0_244_880">
<rect width="52" height="31" fill="white" transform="translate(0.713379 0.433594)"/>
</clipPath>
</defs>
</svg>
