<svg width="51" height="50" viewBox="0 0 51 50" fill="none" xmlns="http://www.w3.org/2000/svg">
<path d="M49.1043 23.3324C49.6538 24.5186 50.0024 25.7865 50.1451 27.08C50.2824 28.3735 50.2138 29.6823 49.9285 30.9554C49.6485 32.2284 49.1625 33.4504 48.4862 34.5751C48.0425 35.3267 47.5194 36.0323 46.9172 36.6816C46.3202 37.3258 45.6545 37.9086 44.9308 38.4199C44.2017 38.9311 43.4251 39.3606 42.601 39.7134C41.7821 40.061 40.9263 40.3269 40.0493 40.5007C39.6372 41.738 39.0244 42.9088 38.2319 43.962C37.4448 45.0152 36.4886 45.9406 35.4003 46.7024C34.312 47.4693 33.1074 48.0623 31.829 48.4611C30.5505 48.865 29.2139 49.0644 27.8667 49.0644C26.9739 49.0695 26.0758 48.9775 25.1988 48.8037C24.3271 48.6247 23.4713 48.3537 22.6524 48.001C21.8335 47.6482 21.0569 47.2085 20.3332 46.6972C19.6147 46.186 18.949 45.598 18.3573 44.9487C17.0366 45.2248 15.6841 45.2913 14.3475 45.1583C13.0109 45.0203 11.7008 44.6829 10.4698 44.1511C9.24417 43.6245 8.10832 42.9088 7.10984 42.0345C6.11135 41.1602 5.26079 40.1377 4.58985 39.0129C4.1408 38.2614 3.77099 37.4689 3.49099 36.6458C3.21099 35.8226 3.02608 34.9739 2.93099 34.1099C2.8359 33.251 2.84118 32.3818 2.93627 31.5178C3.03137 30.6589 3.22684 29.8102 3.50684 28.987C2.60873 28.0207 1.86911 26.9215 1.31968 25.7354C0.77553 24.5441 0.421569 23.2813 0.284211 21.9878C0.141571 20.6943 0.215532 19.3855 0.495531 18.1124C0.77553 16.8394 1.26156 15.6174 1.93779 14.4926C2.38156 13.7411 2.90458 13.0304 3.50155 12.3862C4.09853 11.742 4.76947 11.1592 5.49324 10.6479C6.21701 10.1367 6.99889 9.70209 7.81776 9.35443C8.6419 9.00166 9.49775 8.74091 10.3747 8.56708C10.7868 7.32471 11.3996 6.15902 12.1868 5.10582C12.9792 4.05261 13.9355 3.12722 15.0238 2.36032C16.1121 1.59853 17.3166 1.00547 18.5951 0.601567C19.8735 0.20278 21.2101 -0.0017258 22.5573 0.00338686C23.4501 -0.0017258 24.3482 0.0851893 25.2252 0.264132C26.1022 0.443075 26.958 0.708933 27.7769 1.06171C28.5958 1.41959 29.3724 1.85417 30.0961 2.36543C30.8199 2.88181 31.4856 3.46465 32.0773 4.11396C33.3927 3.84299 34.7452 3.77652 36.0818 3.90945C37.4184 4.04238 38.7233 4.38493 39.9542 4.91153C41.1799 5.44325 42.3157 6.15391 43.3142 7.02817C44.3127 7.89732 45.1632 8.91474 45.8342 10.0446C46.2832 10.7911 46.653 11.5835 46.933 12.4118C47.213 13.2349 47.4032 14.0836 47.493 14.9477C47.5881 15.8117 47.5881 16.6809 47.4877 17.5449C47.3927 18.4089 47.1972 19.2576 46.9172 20.0808C47.8206 21.0471 48.5549 22.1412 49.1043 23.3324ZM31.5014 45.1583C32.6531 44.6982 33.6991 44.0182 34.5814 43.1644C35.4637 42.3106 36.1663 41.2983 36.6418 40.1786C37.1172 39.0641 37.3655 37.8677 37.3655 36.6611V25.2599C37.362 25.2497 37.3585 25.2377 37.355 25.2241C37.3514 25.2139 37.3462 25.2037 37.3391 25.1934C37.3321 25.1832 37.3233 25.1747 37.3127 25.1679C37.3021 25.1576 37.2916 25.1508 37.281 25.1474L33.0176 22.7649V36.5384C33.0176 36.6764 32.9965 36.8196 32.9595 36.9525C32.9225 37.0906 32.8697 37.2184 32.7957 37.3411C32.7218 37.4638 32.6373 37.5763 32.5316 37.6734C32.4289 37.7725 32.3135 37.8584 32.1882 37.929L22.0924 43.5683C22.0079 43.6194 21.8652 43.691 21.7913 43.7319C22.2086 44.0745 22.663 44.3761 23.1384 44.642C23.6192 44.9078 24.1158 45.1328 24.6335 45.3168C25.1513 45.4958 25.6848 45.6338 26.2237 45.7258C26.7679 45.8179 27.3173 45.8639 27.8667 45.8639C29.1135 45.8639 30.3497 45.6236 31.5014 45.1583ZM7.45851 37.4178C8.08719 38.4659 8.91662 39.3759 9.90454 40.1122C10.8977 40.8484 12.023 41.3852 13.2275 41.6971C14.4321 42.0089 15.6894 42.0907 16.9256 41.9323C18.1619 41.7738 19.3505 41.3852 20.4335 40.7819L30.6403 35.0813L30.6667 35.0557C30.6737 35.0489 30.679 35.0387 30.6825 35.0251C30.6896 35.0148 30.6949 35.0046 30.6984 34.9944V30.1885L18.3785 37.0855C18.2517 37.157 18.1196 37.2082 17.9822 37.2491C17.8396 37.2849 17.697 37.3002 17.549 37.3002C17.4064 37.3002 17.2637 37.2849 17.1211 37.2491C16.9837 37.2082 16.8464 37.157 16.7196 37.0855L6.6238 31.4411C6.53399 31.39 6.40192 31.3133 6.32795 31.2673C6.23286 31.7939 6.18531 32.3256 6.18531 32.8573C6.18531 33.389 6.23814 33.9207 6.33324 34.4473C6.42833 34.9688 6.57626 35.4852 6.76116 35.9862C6.95135 36.4873 7.1838 36.9679 7.45851 37.428V37.4178ZM4.80645 16.098C4.18306 17.1461 3.78155 18.3016 3.61778 19.4979C3.45401 20.6943 3.53853 21.906 3.8608 23.0768C4.18306 24.2425 4.73777 25.3315 5.49852 26.2926C6.25928 27.2487 7.20493 28.0514 8.28266 28.6547L18.4841 34.3604C18.4947 34.3638 18.507 34.3672 18.5211 34.3706H18.5581C18.5722 34.3706 18.5845 34.3672 18.5951 34.3604C18.6056 34.357 18.6162 34.3519 18.6268 34.3451L22.906 31.9524L10.586 25.0707C10.4645 24.9991 10.3483 24.9122 10.2427 24.8151C10.1403 24.7157 10.0515 24.604 9.9785 24.4828C9.90982 24.3601 9.85171 24.2323 9.81473 24.0942C9.77775 23.9613 9.75662 23.8232 9.7619 23.6801V12.0692C9.24417 12.2533 8.74228 12.4783 8.26681 12.7441C7.79134 13.0151 7.34229 13.3218 6.91965 13.6644C6.50229 14.0069 6.11135 14.3853 5.75739 14.7943C5.40343 15.1982 5.09173 15.6379 4.81702 16.098H4.80645ZM39.8485 23.992C39.9753 24.0635 40.0916 24.1453 40.1972 24.2476C40.2976 24.3447 40.3874 24.4572 40.4614 24.5799C40.53 24.7026 40.5882 24.8355 40.6251 24.9685C40.6568 25.1065 40.678 25.2446 40.6727 25.3877V36.9985C42.3685 36.3953 43.8478 35.3369 44.9413 33.9463C46.0402 32.5557 46.7006 30.894 46.8538 29.1557C47.007 27.4174 46.6477 25.6689 45.813 24.1198C44.9783 22.5706 43.7051 21.2823 42.1414 20.4131L31.9399 14.7074C31.9293 14.704 31.917 14.7006 31.9029 14.6972H31.8659C31.8554 14.7006 31.843 14.704 31.829 14.7074C31.8184 14.7108 31.8078 14.7159 31.7973 14.7227L27.5392 17.1052L39.8591 23.992H39.8485ZM44.1013 17.8056H44.0961V17.8108L44.1013 17.8056ZM44.0961 17.8005C44.4025 16.0827 44.1964 14.3137 43.4991 12.7032C42.807 11.0927 41.65 9.7072 40.1708 8.70512C38.6916 7.70816 36.9482 7.13554 35.1467 7.05885C33.3399 6.98727 31.5542 7.41162 29.9905 8.28077L19.789 13.9814C19.7785 13.9882 19.7696 13.9967 19.7626 14.0069L19.7415 14.0376C19.7379 14.0478 19.7344 14.0598 19.7309 14.0734C19.7274 14.0836 19.7256 14.0956 19.7256 14.1092V18.8742L32.0456 11.9874C32.1724 11.9159 32.3097 11.8647 32.4471 11.8238C32.5897 11.7881 32.7323 11.7727 32.875 11.7727C33.0229 11.7727 33.1656 11.7881 33.3082 11.8238C33.4456 11.8647 33.5776 11.9159 33.7044 11.9874L43.8002 17.6318C43.89 17.6829 44.0221 17.7545 44.0961 17.8005ZM17.4011 12.5243C17.4011 12.3862 17.4222 12.2482 17.4592 12.1102C17.4962 11.9772 17.549 11.8443 17.623 11.7216C17.697 11.604 17.7815 11.4915 17.8871 11.3893C17.9875 11.2921 18.1037 11.2052 18.2305 11.1387L28.3263 5.49949C28.4214 5.44325 28.5535 5.37167 28.6275 5.33588C27.2433 4.21621 25.5528 3.50044 23.7618 3.2806C21.9709 3.05564 20.1535 3.33172 18.5211 4.07306C16.8834 4.81439 15.4992 5.99542 14.5324 7.46786C13.5657 8.94542 13.0532 10.653 13.0532 12.4016V23.8028C13.0567 23.8164 13.0602 23.8284 13.0638 23.8386C13.0673 23.8488 13.0726 23.859 13.0796 23.8693C13.0867 23.8795 13.0955 23.8897 13.106 23.8999C13.1131 23.9067 13.1236 23.9136 13.1377 23.9204L17.4011 26.3029V12.5243ZM19.7151 27.5913L25.2041 30.6589L30.6931 27.5913V21.4612L25.2094 18.3936L19.7203 21.4612L19.7151 27.5913Z" fill="black"/>
</svg>
