<svg width="56" height="55" viewBox="0 0 56 55" fill="none" xmlns="http://www.w3.org/2000/svg">
<g clip-path="url(#clip0_244_900)">
<path d="M2.28519 20.2811C2.28519 20.2811 0.983224 19.3428 2.54559 18.0899L6.18567 14.8355C6.18567 14.8355 7.22725 13.7399 8.3285 14.6945L41.9193 40.1216V52.3144C41.9193 52.3144 41.903 54.2291 39.4455 54.0175L2.28519 20.2811Z" fill="#2489CA"/>
<path d="M10.9434 28.1401L2.28531 36.0102C2.28531 36.0102 1.39563 36.6719 2.28531 37.8543L6.30513 41.51C6.30513 41.51 7.25991 42.5351 8.67038 41.3689L17.8493 34.4101L10.9434 28.1401Z" fill="#1070B3"/>
<path d="M26.1437 28.2052L42.0223 16.0829L41.9193 3.95512C41.9193 3.95512 41.2412 1.30828 38.979 2.68594L17.8491 21.9135L26.1437 28.2052Z" fill="#0877B9"/>
<path d="M39.4455 54.0338C40.3678 54.9775 41.4853 54.6684 41.4853 54.6684L53.8594 48.5719C55.4435 47.4926 55.2211 46.1529 55.2211 46.1529V9.74792C55.2211 8.14788 53.5828 7.59464 53.5828 7.59464L42.8578 2.4257C40.5142 0.977527 38.979 2.68604 38.979 2.68604C38.979 2.68604 40.9537 1.26499 41.9193 3.95523V52.092C41.9193 52.4229 41.8488 52.7483 41.7077 53.0412C41.4256 53.6107 40.8126 54.1422 39.3425 53.9199L39.4455 54.0338Z" fill="#3C99D4"/>
</g>
<defs>
<clipPath id="clip0_244_900">
<rect width="55" height="54" fill="white" transform="translate(0.713379 0.977539)"/>
</clipPath>
</defs>
</svg>
