<svg width="35" height="35" viewBox="0 0 35 35" fill="none" xmlns="http://www.w3.org/2000/svg">
<g clip-path="url(#clip0_291_1068)">
<path d="M27.7083 5.83325C28.4819 5.83325 29.2237 6.14054 29.7707 6.68752C30.3177 7.2345 30.625 7.97637 30.625 8.74992V26.2499C30.625 27.0235 30.3177 27.7653 29.7707 28.3123C29.2237 28.8593 28.4819 29.1666 27.7083 29.1666H7.29167C6.51812 29.1666 5.77625 28.8593 5.22927 28.3123C4.68229 27.7653 4.375 27.0235 4.375 26.2499V8.74992C4.375 7.97637 4.68229 7.2345 5.22927 6.68752C5.77625 6.14054 6.51812 5.83325 7.29167 5.83325H27.7083ZM27.7083 14.5833H7.29167V24.7916C7.29171 25.1488 7.42285 25.4935 7.66021 25.7605C7.89757 26.0274 8.22463 26.1979 8.57937 26.2397L8.75 26.2499H26.25C26.6072 26.2499 26.9519 26.1187 27.2189 25.8814C27.4858 25.644 27.6563 25.317 27.6981 24.9622L27.7083 24.7916V14.5833ZM8.75 8.74992C8.36323 8.74992 7.99229 8.90356 7.7188 9.17705C7.44531 9.45055 7.29167 9.82148 7.29167 10.2083C7.29167 10.595 7.44531 10.966 7.7188 11.2394C7.99229 11.5129 8.36323 11.6666 8.75 11.6666C9.13677 11.6666 9.50771 11.5129 9.7812 11.2394C10.0547 10.966 10.2083 10.595 10.2083 10.2083C10.2083 9.82148 10.0547 9.45055 9.7812 9.17705C9.50771 8.90356 9.13677 8.74992 8.75 8.74992ZM13.125 8.74992C12.7382 8.74992 12.3673 8.90356 12.0938 9.17705C11.8203 9.45055 11.6667 9.82148 11.6667 10.2083C11.6667 10.595 11.8203 10.966 12.0938 11.2394C12.3673 11.5129 12.7382 11.6666 13.125 11.6666C13.5118 11.6666 13.8827 11.5129 14.1562 11.2394C14.4297 10.966 14.5833 10.595 14.5833 10.2083C14.5833 9.82148 14.4297 9.45055 14.1562 9.17705C13.8827 8.90356 13.5118 8.74992 13.125 8.74992ZM17.5 8.74992C17.1132 8.74992 16.7423 8.90356 16.4688 9.17705C16.1953 9.45055 16.0417 9.82148 16.0417 10.2083C16.0417 10.595 16.1953 10.966 16.4688 11.2394C16.7423 11.5129 17.1132 11.6666 17.5 11.6666C17.8868 11.6666 18.2577 11.5129 18.5312 11.2394C18.8047 10.966 18.9583 10.595 18.9583 10.2083C18.9583 9.82148 18.8047 9.45055 18.5312 9.17705C18.2577 8.90356 17.8868 8.74992 17.5 8.74992Z" fill="#002642"/>
</g>
<defs>
<clipPath id="clip0_291_1068">
<rect width="35" height="35" fill="white"/>
</clipPath>
</defs>
</svg>
