<svg width="52" height="52" viewBox="0 0 52 52" fill="none" xmlns="http://www.w3.org/2000/svg">
<g clip-path="url(#clip0_244_889)">
<path d="M4.32368 26.0684C4.32368 34.7276 9.33555 42.2106 16.6036 45.7568L6.2101 17.1656C4.96418 19.9668 4.32136 23.0005 4.32368 26.0684ZM40.8213 24.9644C40.8213 22.261 39.854 20.3886 39.0245 18.9314C37.92 17.1294 36.8847 15.6034 36.8847 13.8014C36.8847 11.7904 38.4038 9.91836 40.5436 9.91836C40.6402 9.91836 40.7317 9.93036 40.8259 9.93596C36.9495 6.37016 31.7848 4.19316 26.1124 4.19316C18.5003 4.19316 11.8034 8.11436 7.90749 14.0536C8.41863 14.069 8.9003 14.0796 9.30966 14.0796C11.5885 14.0796 15.1163 13.8022 15.1163 13.8022C16.291 13.7326 16.4295 15.4646 15.2562 15.6042C15.2562 15.6042 14.0757 15.7436 12.7622 15.8126L20.6971 39.5084L25.4654 25.1504L22.0706 15.812C20.8973 15.743 19.7858 15.6036 19.7858 15.6036C18.6117 15.5344 18.7493 13.732 19.9234 13.8016C19.9234 13.8016 23.5218 14.0792 25.6626 14.0792C27.9414 14.0792 31.4695 13.8016 31.4695 13.8016C32.6447 13.732 32.783 15.464 31.6093 15.6036C31.6093 15.6036 30.4265 15.743 29.1153 15.812L36.9895 39.3282L39.1628 32.0366C40.1046 29.0108 40.8215 26.8376 40.8215 24.9646L40.8213 24.9644ZM26.4946 27.982L19.9573 47.0546C21.956 47.6456 24.0288 47.9457 26.1124 47.9458C28.6496 47.9458 31.0828 47.5054 33.3479 46.7058C33.2874 46.6101 33.2355 46.5092 33.1927 46.4044L26.4946 27.982ZM45.231 15.573C45.3246 16.2698 45.3778 17.0178 45.3778 17.8224C45.3778 20.0424 44.9649 22.5378 43.7211 25.658L37.0656 44.978C43.5432 41.1854 47.9001 34.1394 47.9001 26.069C47.9005 22.2656 46.933 18.689 45.231 15.573ZM26.1124 0.568359C12.1076 0.568359 0.713379 12.0076 0.713379 26.0684C0.713379 40.131 12.1076 51.5698 26.1124 51.5698C40.1165 51.5698 51.5124 40.131 51.5124 26.0684C51.5122 12.0076 40.1165 0.568359 26.1124 0.568359ZM26.1124 50.401C12.75 50.401 1.8779 39.4854 1.8779 26.0684C1.8779 12.6524 12.7494 1.73756 26.1124 1.73756C39.4743 1.73756 50.3455 12.6524 50.3455 26.0684C50.3455 39.4854 39.4743 50.401 26.1124 50.401Z" fill="#464342"/>
</g>
<defs>
<clipPath id="clip0_244_889">
<rect width="51" height="51" fill="white" transform="translate(0.713379 0.568359)"/>
</clipPath>
</defs>
</svg>
